%TF.GenerationSoftware,KiCad,Pcbnew,(6.0.2)*%
%TF.CreationDate,2022-03-18T23:14:24+01:00*%
%TF.ProjectId,prova-buck,70726f76-612d-4627-9563-6b2e6b696361,rev?*%
%TF.SameCoordinates,Original*%
%TF.FileFunction,Soldermask,Top*%
%TF.FilePolarity,Negative*%
%FSLAX46Y46*%
G04 Gerber Fmt 4.6, Leading zero omitted, Abs format (unit mm)*
G04 Created by KiCad (PCBNEW (6.0.2)) date 2022-03-18 23:14:24*
%MOMM*%
%LPD*%
G01*
G04 APERTURE LIST*
G04 Aperture macros list*
%AMRoundRect*
0 Rectangle with rounded corners*
0 $1 Rounding radius*
0 $2 $3 $4 $5 $6 $7 $8 $9 X,Y pos of 4 corners*
0 Add a 4 corners polygon primitive as box body*
4,1,4,$2,$3,$4,$5,$6,$7,$8,$9,$2,$3,0*
0 Add four circle primitives for the rounded corners*
1,1,$1+$1,$2,$3*
1,1,$1+$1,$4,$5*
1,1,$1+$1,$6,$7*
1,1,$1+$1,$8,$9*
0 Add four rect primitives between the rounded corners*
20,1,$1+$1,$2,$3,$4,$5,0*
20,1,$1+$1,$4,$5,$6,$7,0*
20,1,$1+$1,$6,$7,$8,$9,0*
20,1,$1+$1,$8,$9,$2,$3,0*%
%AMFreePoly0*
4,1,14,0.460355,0.185355,0.660355,-0.014645,0.675000,-0.050000,0.675000,-0.150000,0.660355,-0.185355,0.625000,-0.200000,-0.425000,-0.200000,-0.460355,-0.185355,-0.475000,-0.150000,-0.475000,0.150000,-0.460355,0.185355,-0.425000,0.200000,0.425000,0.200000,0.460355,0.185355,0.460355,0.185355,$1*%
G04 Aperture macros list end*
%ADD10C,0.650000*%
%ADD11RoundRect,0.300000X0.325000X0.650000X-0.325000X0.650000X-0.325000X-0.650000X0.325000X-0.650000X0*%
%ADD12RoundRect,0.275000X0.225000X0.250000X-0.225000X0.250000X-0.225000X-0.250000X0.225000X-0.250000X0*%
%ADD13RoundRect,0.275000X-0.225000X-0.250000X0.225000X-0.250000X0.225000X0.250000X-0.225000X0.250000X0*%
%ADD14RoundRect,0.190000X-0.140000X-0.170000X0.140000X-0.170000X0.140000X0.170000X-0.140000X0.170000X0*%
%ADD15RoundRect,0.050000X-1.200000X1.200000X-1.200000X-1.200000X1.200000X-1.200000X1.200000X1.200000X0*%
%ADD16C,2.500000*%
%ADD17RoundRect,0.050000X-1.250000X0.950000X-1.250000X-0.950000X1.250000X-0.950000X1.250000X0.950000X0*%
%ADD18RoundRect,0.250000X-0.200000X-0.275000X0.200000X-0.275000X0.200000X0.275000X-0.200000X0.275000X0*%
%ADD19RoundRect,0.250000X0.200000X0.275000X-0.200000X0.275000X-0.200000X-0.275000X0.200000X-0.275000X0*%
%ADD20RoundRect,0.300000X-0.325000X-0.650000X0.325000X-0.650000X0.325000X0.650000X-0.325000X0.650000X0*%
%ADD21C,0.296000*%
%ADD22RoundRect,0.200000X-0.587500X-0.150000X0.587500X-0.150000X0.587500X0.150000X-0.587500X0.150000X0*%
%ADD23RoundRect,0.050000X-0.850000X-0.850000X0.850000X-0.850000X0.850000X0.850000X-0.850000X0.850000X0*%
%ADD24O,1.800000X1.800000*%
%ADD25FreePoly0,270.000000*%
%ADD26RoundRect,0.050000X-0.100000X0.750000X-0.100000X-0.750000X0.100000X-0.750000X0.100000X0.750000X0*%
%ADD27RoundRect,0.050000X-0.100000X0.450000X-0.100000X-0.450000X0.100000X-0.450000X0.100000X0.450000X0*%
%ADD28RoundRect,0.050000X-0.450000X0.100000X-0.450000X-0.100000X0.450000X-0.100000X0.450000X0.100000X0*%
%ADD29RoundRect,0.050000X1.750000X2.000000X-1.750000X2.000000X-1.750000X-2.000000X1.750000X-2.000000X0*%
%ADD30RoundRect,0.800000X0.750000X1.000000X-0.750000X1.000000X-0.750000X-1.000000X0.750000X-1.000000X0*%
%ADD31RoundRect,0.925000X0.875000X0.875000X-0.875000X0.875000X-0.875000X-0.875000X0.875000X-0.875000X0*%
%ADD32RoundRect,0.050000X-1.250000X-0.900000X1.250000X-0.900000X1.250000X0.900000X-1.250000X0.900000X0*%
%ADD33RoundRect,0.268750X-0.256250X0.218750X-0.256250X-0.218750X0.256250X-0.218750X0.256250X0.218750X0*%
%ADD34RoundRect,0.050000X0.775000X-0.750000X0.775000X0.750000X-0.775000X0.750000X-0.775000X-0.750000X0*%
%ADD35RoundRect,0.050000X0.775000X-0.600000X0.775000X0.600000X-0.775000X0.600000X-0.775000X-0.600000X0*%
%ADD36O,1.650000X0.990000*%
%ADD37O,1.050000X1.350000*%
%ADD38RoundRect,0.050000X0.675000X-0.200000X0.675000X0.200000X-0.675000X0.200000X-0.675000X-0.200000X0*%
%ADD39RoundRect,0.050000X-0.750000X1.000000X-0.750000X-1.000000X0.750000X-1.000000X0.750000X1.000000X0*%
%ADD40RoundRect,0.050000X-1.900000X1.000000X-1.900000X-1.000000X1.900000X-1.000000X1.900000X1.000000X0*%
%ADD41RoundRect,0.250000X-0.275000X0.200000X-0.275000X-0.200000X0.275000X-0.200000X0.275000X0.200000X0*%
%ADD42RoundRect,0.050000X0.500000X-0.500000X0.500000X0.500000X-0.500000X0.500000X-0.500000X-0.500000X0*%
%ADD43RoundRect,1.050000X1.000000X2.000000X-1.000000X2.000000X-1.000000X-2.000000X1.000000X-2.000000X0*%
%ADD44RoundRect,1.050000X-1.000000X-2.000000X1.000000X-2.000000X1.000000X2.000000X-1.000000X2.000000X0*%
%ADD45RoundRect,0.185000X0.135000X0.185000X-0.135000X0.185000X-0.135000X-0.185000X0.135000X-0.185000X0*%
%ADD46RoundRect,0.300000X0.475000X-0.250000X0.475000X0.250000X-0.475000X0.250000X-0.475000X-0.250000X0*%
%ADD47RoundRect,0.320491X-2.029509X0.554509X-2.029509X-0.554509X2.029509X-0.554509X2.029509X0.554509X0*%
%ADD48RoundRect,0.200000X0.825000X0.150000X-0.825000X0.150000X-0.825000X-0.150000X0.825000X-0.150000X0*%
%ADD49RoundRect,0.275000X0.250000X-0.225000X0.250000X0.225000X-0.250000X0.225000X-0.250000X-0.225000X0*%
%ADD50RoundRect,0.050000X0.850000X0.850000X-0.850000X0.850000X-0.850000X-0.850000X0.850000X-0.850000X0*%
G04 APERTURE END LIST*
D10*
X162575000Y-111760000D02*
G75*
G03*
X162575000Y-111760000I-325000J0D01*
G01*
X124925000Y-111700000D02*
G75*
G03*
X124925000Y-111700000I-325000J0D01*
G01*
X168125000Y-79100000D02*
G75*
G03*
X168125000Y-79100000I-325000J0D01*
G01*
D11*
X134000000Y-85000000D03*
X131050000Y-85000000D03*
D12*
X141550000Y-97750000D03*
X140000000Y-97750000D03*
D13*
X135975000Y-87500000D03*
X137525000Y-87500000D03*
D12*
X134025000Y-87500000D03*
X132475000Y-87500000D03*
D14*
X134270000Y-95500000D03*
X135230000Y-95500000D03*
D13*
X129000000Y-95750000D03*
X130550000Y-95750000D03*
D12*
X141550000Y-95750000D03*
X140000000Y-95750000D03*
D13*
X139975000Y-90500000D03*
X141525000Y-90500000D03*
D11*
X130575000Y-100500000D03*
X127625000Y-100500000D03*
X130575000Y-103400000D03*
X127625000Y-103400000D03*
D15*
X121200000Y-84750000D03*
D16*
X121200000Y-88250000D03*
D17*
X135250000Y-97950000D03*
X135250000Y-102050000D03*
D18*
X128925000Y-89750000D03*
X130575000Y-89750000D03*
D19*
X130575000Y-91750000D03*
X128925000Y-91750000D03*
X141575000Y-88750000D03*
X139925000Y-88750000D03*
D18*
X139925000Y-92250000D03*
X141575000Y-92250000D03*
D19*
X130575000Y-93750000D03*
X128925000Y-93750000D03*
D20*
X136025000Y-85000000D03*
X138975000Y-85000000D03*
D19*
X141575000Y-94000000D03*
X139925000Y-94000000D03*
D21*
X162250000Y-111760000D03*
D22*
X120262500Y-79300000D03*
X120262500Y-81200000D03*
X122137500Y-80250000D03*
D23*
X120000000Y-94000000D03*
D24*
X120000000Y-96540000D03*
X120000000Y-99080000D03*
X120000000Y-101620000D03*
D19*
X146825000Y-82750000D03*
X145175000Y-82750000D03*
D25*
X136150000Y-90125000D03*
D26*
X135550000Y-90450000D03*
X134950000Y-90450000D03*
D27*
X134350000Y-90150000D03*
D28*
X133400000Y-90600000D03*
X133400000Y-91200000D03*
X133400000Y-91800000D03*
X133400000Y-92400000D03*
D27*
X134350000Y-92850000D03*
X134950000Y-92850000D03*
X135550000Y-92850000D03*
X136150000Y-92850000D03*
D28*
X137100000Y-92400000D03*
X137100000Y-91800000D03*
X137100000Y-91200000D03*
X137100000Y-90600000D03*
D29*
X157000000Y-82550000D03*
D30*
X163000000Y-82550000D03*
D31*
X160000000Y-77750000D03*
D18*
X120350000Y-76550000D03*
X122000000Y-76550000D03*
D32*
X146200000Y-78750000D03*
X150200000Y-78750000D03*
D33*
X155400000Y-92212500D03*
X155400000Y-93787500D03*
D34*
X168500000Y-93000000D03*
X168500000Y-95000000D03*
D35*
X168500000Y-91100000D03*
D36*
X168500000Y-90500000D03*
D35*
X168500000Y-96900000D03*
D36*
X168500000Y-97500000D03*
D37*
X165800000Y-96500000D03*
X165800000Y-91500000D03*
D38*
X165800000Y-92700000D03*
X165800000Y-93350000D03*
X165800000Y-94000000D03*
X165800000Y-94650000D03*
X165800000Y-95300000D03*
D23*
X159500000Y-104000000D03*
D24*
X159500000Y-106540000D03*
X159500000Y-109080000D03*
X159500000Y-111620000D03*
D39*
X152800000Y-98450000D03*
X150500000Y-98450000D03*
D40*
X150500000Y-104750000D03*
D39*
X148200000Y-98450000D03*
D21*
X124600000Y-111700000D03*
D19*
X151825000Y-82750000D03*
X150175000Y-82750000D03*
D41*
X152500000Y-92175000D03*
X152500000Y-93825000D03*
D42*
X161900000Y-99950000D03*
X161900000Y-97450000D03*
D43*
X146500000Y-110000000D03*
D44*
X140500000Y-110000000D03*
D43*
X134500000Y-110000000D03*
D44*
X128500000Y-110000000D03*
D45*
X137510000Y-95500000D03*
X136490000Y-95500000D03*
D22*
X160562500Y-92800000D03*
X160562500Y-94700000D03*
X162437500Y-93750000D03*
D42*
X125500000Y-79550000D03*
X125500000Y-77050000D03*
D46*
X156200000Y-101000000D03*
X156200000Y-99100000D03*
D47*
X135000000Y-76975000D03*
X135000000Y-82025000D03*
D21*
X167800000Y-79100000D03*
D48*
X152475000Y-89655000D03*
X152475000Y-88385000D03*
X152475000Y-87115000D03*
X152475000Y-85845000D03*
X147525000Y-85845000D03*
X147525000Y-87115000D03*
X147525000Y-88385000D03*
X147525000Y-89655000D03*
D49*
X148200000Y-95825000D03*
X148200000Y-94275000D03*
D50*
X167500000Y-106580000D03*
D24*
X164960000Y-106580000D03*
X167500000Y-109120000D03*
X164960000Y-109120000D03*
X167500000Y-111660000D03*
X164960000Y-111660000D03*
D50*
X121960000Y-106580000D03*
D24*
X119420000Y-106580000D03*
X121960000Y-109120000D03*
X119420000Y-109120000D03*
X121960000Y-111660000D03*
X119420000Y-111660000D03*
M02*
