G04 #@! TF.GenerationSoftware,KiCad,Pcbnew,(6.0.2)*
G04 #@! TF.CreationDate,2022-03-19T12:20:35+01:00*
G04 #@! TF.ProjectId,prova-buck,70726f76-612d-4627-9563-6b2e6b696361,rev?*
G04 #@! TF.SameCoordinates,Original*
G04 #@! TF.FileFunction,Copper,L2,Bot*
G04 #@! TF.FilePolarity,Positive*
%FSLAX46Y46*%
G04 Gerber Fmt 4.6, Leading zero omitted, Abs format (unit mm)*
G04 Created by KiCad (PCBNEW (6.0.2)) date 2022-03-19 12:20:35*
%MOMM*%
%LPD*%
G01*
G04 APERTURE LIST*
G04 Aperture macros list*
%AMRoundRect*
0 Rectangle with rounded corners*
0 $1 Rounding radius*
0 $2 $3 $4 $5 $6 $7 $8 $9 X,Y pos of 4 corners*
0 Add a 4 corners polygon primitive as box body*
4,1,4,$2,$3,$4,$5,$6,$7,$8,$9,$2,$3,0*
0 Add four circle primitives for the rounded corners*
1,1,$1+$1,$2,$3*
1,1,$1+$1,$4,$5*
1,1,$1+$1,$6,$7*
1,1,$1+$1,$8,$9*
0 Add four rect primitives between the rounded corners*
20,1,$1+$1,$2,$3,$4,$5,0*
20,1,$1+$1,$4,$5,$6,$7,0*
20,1,$1+$1,$6,$7,$8,$9,0*
20,1,$1+$1,$8,$9,$2,$3,0*%
G04 Aperture macros list end*
G04 #@! TA.AperFunction,ComponentPad*
%ADD10R,2.400000X2.400000*%
G04 #@! TD*
G04 #@! TA.AperFunction,ComponentPad*
%ADD11C,2.400000*%
G04 #@! TD*
G04 #@! TA.AperFunction,ComponentPad*
%ADD12R,1.700000X1.700000*%
G04 #@! TD*
G04 #@! TA.AperFunction,ComponentPad*
%ADD13O,1.700000X1.700000*%
G04 #@! TD*
G04 #@! TA.AperFunction,ComponentPad*
%ADD14R,3.500000X4.000000*%
G04 #@! TD*
G04 #@! TA.AperFunction,ComponentPad*
%ADD15RoundRect,0.750000X0.750000X1.000000X-0.750000X1.000000X-0.750000X-1.000000X0.750000X-1.000000X0*%
G04 #@! TD*
G04 #@! TA.AperFunction,ComponentPad*
%ADD16RoundRect,0.875000X0.875000X0.875000X-0.875000X0.875000X-0.875000X-0.875000X0.875000X-0.875000X0*%
G04 #@! TD*
G04 #@! TA.AperFunction,ComponentPad*
%ADD17O,0.950000X1.250000*%
G04 #@! TD*
G04 #@! TA.AperFunction,ComponentPad*
%ADD18O,1.550000X0.890000*%
G04 #@! TD*
G04 #@! TA.AperFunction,ComponentPad*
%ADD19RoundRect,1.000000X1.000000X2.000000X-1.000000X2.000000X-1.000000X-2.000000X1.000000X-2.000000X0*%
G04 #@! TD*
G04 #@! TA.AperFunction,ComponentPad*
%ADD20RoundRect,1.000000X-1.000000X-2.000000X1.000000X-2.000000X1.000000X2.000000X-1.000000X2.000000X0*%
G04 #@! TD*
G04 #@! TA.AperFunction,ViaPad*
%ADD21C,0.800000*%
G04 #@! TD*
G04 #@! TA.AperFunction,ViaPad*
%ADD22C,0.600000*%
G04 #@! TD*
G04 #@! TA.AperFunction,Conductor*
%ADD23C,0.300000*%
G04 #@! TD*
G04 #@! TA.AperFunction,Conductor*
%ADD24C,0.200000*%
G04 #@! TD*
G04 APERTURE END LIST*
D10*
X121200000Y-84750000D03*
D11*
X121200000Y-88250000D03*
D12*
X120000000Y-94000000D03*
D13*
X120000000Y-96540000D03*
X120000000Y-99080000D03*
X120000000Y-101620000D03*
D14*
X157000000Y-82550000D03*
D15*
X163000000Y-82550000D03*
D16*
X160000000Y-77750000D03*
D17*
X165800000Y-91500000D03*
X165800000Y-96500000D03*
D18*
X168500000Y-97500000D03*
X168500000Y-90500000D03*
D12*
X159500000Y-104000000D03*
D13*
X159500000Y-106540000D03*
X159500000Y-109080000D03*
X159500000Y-111620000D03*
D19*
X146500000Y-110000000D03*
D20*
X140500000Y-110000000D03*
D19*
X134500000Y-110000000D03*
D20*
X128500000Y-110000000D03*
D12*
X167500000Y-106580000D03*
D13*
X164960000Y-106580000D03*
X167500000Y-109120000D03*
X164960000Y-109120000D03*
X167500000Y-111660000D03*
X164960000Y-111660000D03*
D12*
X121960000Y-106580000D03*
D13*
X119420000Y-106580000D03*
X121960000Y-109120000D03*
X119420000Y-109120000D03*
X121960000Y-111660000D03*
X119420000Y-111660000D03*
D21*
X142500000Y-94000000D03*
X142500000Y-83250000D03*
X164200000Y-93200000D03*
X162900000Y-99400000D03*
X142400000Y-88750000D03*
X126600000Y-100900000D03*
X151500000Y-93900000D03*
X138100000Y-88300000D03*
X131700000Y-86900000D03*
X140000000Y-85750000D03*
X130000000Y-85750000D03*
X130000000Y-87000000D03*
X126600000Y-103900000D03*
X128750000Y-85750000D03*
X140000000Y-87000000D03*
X142500000Y-95750000D03*
X142500000Y-84500000D03*
X127500000Y-84500000D03*
X148650000Y-93400000D03*
X152700000Y-82700000D03*
X119500000Y-76550000D03*
X139000000Y-83650000D03*
D22*
X131850000Y-91100000D03*
D21*
X162900000Y-100500000D03*
X138100000Y-93200000D03*
X164200000Y-92200000D03*
X142500000Y-97750000D03*
X147750000Y-93400000D03*
X130000000Y-84500000D03*
X127500000Y-83250000D03*
X126600000Y-99800000D03*
X140000000Y-84500000D03*
X155700000Y-98150000D03*
X128750000Y-83250000D03*
X154500000Y-99000000D03*
X141250000Y-87000000D03*
X126600000Y-102800000D03*
X128750000Y-87000000D03*
X127500000Y-87000000D03*
X153900000Y-85800000D03*
X141250000Y-84500000D03*
X128750000Y-84500000D03*
X131700000Y-88100000D03*
X156700000Y-98150000D03*
X138300000Y-86850000D03*
X142500000Y-87000000D03*
X131100000Y-83650000D03*
X141250000Y-85750000D03*
X128100000Y-95700000D03*
X142500000Y-85750000D03*
X127500000Y-85750000D03*
X154500000Y-97650000D03*
X141250000Y-83250000D03*
D22*
X128900000Y-88900000D03*
X134100000Y-88500000D03*
X137740000Y-94100000D03*
X129750000Y-92700000D03*
D23*
X133600000Y-89000000D02*
X134100000Y-88500000D01*
X129000000Y-89000000D02*
X133600000Y-89000000D01*
X128900000Y-88900000D02*
X129000000Y-89000000D01*
D24*
X129850000Y-92800000D02*
X129750000Y-92700000D01*
X137389748Y-93489748D02*
X136700000Y-92800000D01*
X136700000Y-92800000D02*
X129850000Y-92800000D01*
X137740000Y-93829259D02*
X137400489Y-93489748D01*
X137400489Y-93489748D02*
X137389748Y-93489748D01*
X137740000Y-94100000D02*
X137740000Y-93829259D01*
G04 #@! TA.AperFunction,Conductor*
G36*
X167980181Y-75201953D02*
G01*
X167985812Y-75201963D01*
X167999641Y-75205143D01*
X168013482Y-75202011D01*
X168027146Y-75202035D01*
X168035164Y-75202305D01*
X168094837Y-75206216D01*
X168226704Y-75214859D01*
X168243044Y-75217010D01*
X168457774Y-75259722D01*
X168473695Y-75263988D01*
X168681011Y-75334363D01*
X168696237Y-75340670D01*
X168892591Y-75437501D01*
X168906865Y-75445742D01*
X169088905Y-75567377D01*
X169101980Y-75577410D01*
X169266579Y-75721758D01*
X169278234Y-75733413D01*
X169422593Y-75898024D01*
X169432626Y-75911099D01*
X169554258Y-76093134D01*
X169562499Y-76107408D01*
X169604585Y-76192750D01*
X169659331Y-76303763D01*
X169659331Y-76303764D01*
X169665638Y-76318991D01*
X169736010Y-76526303D01*
X169740276Y-76542222D01*
X169782990Y-76756956D01*
X169785141Y-76773297D01*
X169786410Y-76792658D01*
X169797668Y-76964407D01*
X169797787Y-76966230D01*
X169798057Y-76974692D01*
X169798037Y-76985812D01*
X169794857Y-76999642D01*
X169797989Y-77013482D01*
X169797980Y-77018372D01*
X169800000Y-77036448D01*
X169800000Y-112962976D01*
X169798047Y-112980182D01*
X169798037Y-112985813D01*
X169794857Y-112999642D01*
X169797989Y-113013483D01*
X169797965Y-113027147D01*
X169797695Y-113035165D01*
X169796410Y-113054778D01*
X169785141Y-113226705D01*
X169782990Y-113243045D01*
X169740278Y-113457773D01*
X169736012Y-113473694D01*
X169665637Y-113681011D01*
X169659330Y-113696237D01*
X169562499Y-113892592D01*
X169554258Y-113906866D01*
X169432626Y-114088901D01*
X169422593Y-114101977D01*
X169278237Y-114266583D01*
X169266583Y-114278237D01*
X169101977Y-114422593D01*
X169088901Y-114432626D01*
X168906866Y-114554258D01*
X168892592Y-114562499D01*
X168696237Y-114659330D01*
X168681011Y-114665637D01*
X168473694Y-114736012D01*
X168457773Y-114740278D01*
X168243045Y-114782990D01*
X168226705Y-114785141D01*
X168160142Y-114789504D01*
X168033759Y-114797787D01*
X168025308Y-114798057D01*
X168014188Y-114798037D01*
X168000358Y-114794857D01*
X167986518Y-114797989D01*
X167981628Y-114797980D01*
X167963552Y-114800000D01*
X119037024Y-114800000D01*
X119019818Y-114798047D01*
X119014187Y-114798037D01*
X119000358Y-114794857D01*
X118986517Y-114797989D01*
X118972853Y-114797965D01*
X118964835Y-114797695D01*
X118905162Y-114793784D01*
X118773295Y-114785141D01*
X118756955Y-114782990D01*
X118542227Y-114740278D01*
X118526306Y-114736012D01*
X118318989Y-114665637D01*
X118303763Y-114659330D01*
X118107408Y-114562499D01*
X118093134Y-114554258D01*
X117911099Y-114432626D01*
X117898023Y-114422593D01*
X117733417Y-114278237D01*
X117721763Y-114266583D01*
X117577407Y-114101977D01*
X117567374Y-114088901D01*
X117445742Y-113906866D01*
X117437501Y-113892592D01*
X117340670Y-113696237D01*
X117334363Y-113681011D01*
X117263988Y-113473694D01*
X117259722Y-113457773D01*
X117217010Y-113243045D01*
X117214859Y-113226705D01*
X117209307Y-113141997D01*
X117202213Y-113033759D01*
X117201943Y-113025308D01*
X117201963Y-113014188D01*
X117205143Y-113000358D01*
X117202011Y-112986518D01*
X117202020Y-112981628D01*
X117200000Y-112963552D01*
X117200000Y-111645262D01*
X120904520Y-111645262D01*
X120905036Y-111651406D01*
X120919760Y-111826743D01*
X120921759Y-111850553D01*
X120923458Y-111856478D01*
X120968646Y-112014066D01*
X120978544Y-112048586D01*
X120981359Y-112054063D01*
X120981360Y-112054066D01*
X121045592Y-112179048D01*
X121072712Y-112231818D01*
X121200677Y-112393270D01*
X121205370Y-112397264D01*
X121205371Y-112397265D01*
X121350210Y-112520532D01*
X121357564Y-112526791D01*
X121362942Y-112529797D01*
X121362944Y-112529798D01*
X121364077Y-112530431D01*
X121537398Y-112627297D01*
X121604365Y-112649056D01*
X121727471Y-112689056D01*
X121727475Y-112689057D01*
X121733329Y-112690959D01*
X121937894Y-112715351D01*
X121944029Y-112714879D01*
X121944031Y-112714879D01*
X122000039Y-112710569D01*
X122143300Y-112699546D01*
X122149230Y-112697890D01*
X122149232Y-112697890D01*
X122284874Y-112660018D01*
X122341725Y-112644145D01*
X122347214Y-112641372D01*
X122347220Y-112641370D01*
X122520116Y-112554033D01*
X122525610Y-112551258D01*
X122552268Y-112530431D01*
X122629072Y-112470425D01*
X122687951Y-112424424D01*
X122716084Y-112391832D01*
X122818540Y-112273134D01*
X122818540Y-112273133D01*
X122822564Y-112268472D01*
X122843079Y-112232360D01*
X122877163Y-112172360D01*
X122924323Y-112089344D01*
X122989351Y-111893863D01*
X123015171Y-111689474D01*
X123015583Y-111660000D01*
X123014933Y-111653367D01*
X123765906Y-111653367D01*
X123766263Y-111660184D01*
X123766263Y-111660188D01*
X123768697Y-111706629D01*
X123775349Y-111833564D01*
X123777162Y-111840144D01*
X123777162Y-111840147D01*
X123815113Y-111977923D01*
X123823268Y-112007530D01*
X123907424Y-112167148D01*
X123911826Y-112172357D01*
X123911828Y-112172360D01*
X124019487Y-112299757D01*
X124019491Y-112299761D01*
X124023894Y-112304971D01*
X124029318Y-112309118D01*
X124029319Y-112309119D01*
X124161821Y-112410425D01*
X124161825Y-112410428D01*
X124167242Y-112414569D01*
X124173422Y-112417451D01*
X124173424Y-112417452D01*
X124198050Y-112428935D01*
X124330780Y-112490828D01*
X124405227Y-112507469D01*
X124501835Y-112529064D01*
X124501841Y-112529065D01*
X124506879Y-112530191D01*
X124512406Y-112530500D01*
X124645077Y-112530500D01*
X124779389Y-112515909D01*
X124950409Y-112458355D01*
X125006880Y-112424424D01*
X125030178Y-112410425D01*
X125105080Y-112365419D01*
X125110042Y-112360727D01*
X125231229Y-112246126D01*
X125231231Y-112246124D01*
X125236187Y-112241437D01*
X125337612Y-112092195D01*
X125340147Y-112085858D01*
X125345790Y-112071750D01*
X132299500Y-112071750D01*
X132299668Y-112074045D01*
X132299668Y-112074047D01*
X132306481Y-112167148D01*
X132306985Y-112174042D01*
X132308190Y-112179043D01*
X132308191Y-112179048D01*
X132329743Y-112268472D01*
X132358679Y-112388537D01*
X132448596Y-112590021D01*
X132451869Y-112594775D01*
X132451870Y-112594776D01*
X132570450Y-112766990D01*
X132570453Y-112766994D01*
X132573724Y-112771744D01*
X132729874Y-112927621D01*
X132734636Y-112930888D01*
X132734640Y-112930891D01*
X132834339Y-112999284D01*
X132911815Y-113052432D01*
X133033728Y-113106583D01*
X133108168Y-113139649D01*
X133108172Y-113139650D01*
X133113455Y-113141997D01*
X133119079Y-113143342D01*
X133323033Y-113192120D01*
X133323039Y-113192121D01*
X133328040Y-113193317D01*
X133333168Y-113193685D01*
X133333171Y-113193685D01*
X133426000Y-113200339D01*
X133426008Y-113200339D01*
X133428250Y-113200500D01*
X135571750Y-113200500D01*
X135574045Y-113200332D01*
X135574047Y-113200332D01*
X135668905Y-113193391D01*
X135668906Y-113193391D01*
X135674042Y-113193015D01*
X135679043Y-113191810D01*
X135679048Y-113191809D01*
X135821914Y-113157377D01*
X135888537Y-113141321D01*
X136090021Y-113051404D01*
X136094776Y-113048130D01*
X136266990Y-112929550D01*
X136266994Y-112929547D01*
X136271744Y-112926276D01*
X136427621Y-112770126D01*
X136430888Y-112765364D01*
X136430891Y-112765360D01*
X136549164Y-112592949D01*
X136549164Y-112592948D01*
X136552432Y-112588185D01*
X136631390Y-112410425D01*
X136639649Y-112391832D01*
X136639650Y-112391828D01*
X136641997Y-112386545D01*
X136661506Y-112304971D01*
X136692120Y-112176967D01*
X136692121Y-112176961D01*
X136693317Y-112171960D01*
X136698630Y-112097838D01*
X136700339Y-112074000D01*
X136700339Y-112073992D01*
X136700500Y-112071750D01*
X144299500Y-112071750D01*
X144299668Y-112074045D01*
X144299668Y-112074047D01*
X144306481Y-112167148D01*
X144306985Y-112174042D01*
X144308190Y-112179043D01*
X144308191Y-112179048D01*
X144329743Y-112268472D01*
X144358679Y-112388537D01*
X144448596Y-112590021D01*
X144451869Y-112594775D01*
X144451870Y-112594776D01*
X144570450Y-112766990D01*
X144570453Y-112766994D01*
X144573724Y-112771744D01*
X144729874Y-112927621D01*
X144734636Y-112930888D01*
X144734640Y-112930891D01*
X144834339Y-112999284D01*
X144911815Y-113052432D01*
X145033728Y-113106583D01*
X145108168Y-113139649D01*
X145108172Y-113139650D01*
X145113455Y-113141997D01*
X145119079Y-113143342D01*
X145323033Y-113192120D01*
X145323039Y-113192121D01*
X145328040Y-113193317D01*
X145333168Y-113193685D01*
X145333171Y-113193685D01*
X145426000Y-113200339D01*
X145426008Y-113200339D01*
X145428250Y-113200500D01*
X147571750Y-113200500D01*
X147574045Y-113200332D01*
X147574047Y-113200332D01*
X147668905Y-113193391D01*
X147668906Y-113193391D01*
X147674042Y-113193015D01*
X147679043Y-113191810D01*
X147679048Y-113191809D01*
X147821914Y-113157377D01*
X147888537Y-113141321D01*
X148090021Y-113051404D01*
X148094776Y-113048130D01*
X148266990Y-112929550D01*
X148266994Y-112929547D01*
X148271744Y-112926276D01*
X148427621Y-112770126D01*
X148430888Y-112765364D01*
X148430891Y-112765360D01*
X148549164Y-112592949D01*
X148549164Y-112592948D01*
X148552432Y-112588185D01*
X148631390Y-112410425D01*
X148639649Y-112391832D01*
X148639650Y-112391828D01*
X148641997Y-112386545D01*
X148661506Y-112304971D01*
X148692120Y-112176967D01*
X148692121Y-112176961D01*
X148693317Y-112171960D01*
X148698630Y-112097838D01*
X148700339Y-112074000D01*
X148700339Y-112073992D01*
X148700500Y-112071750D01*
X148700500Y-111605262D01*
X158444520Y-111605262D01*
X158445036Y-111611406D01*
X158455819Y-111739812D01*
X158461759Y-111810553D01*
X158463458Y-111816478D01*
X158509752Y-111977923D01*
X158518544Y-112008586D01*
X158521359Y-112014063D01*
X158521360Y-112014066D01*
X158606149Y-112179048D01*
X158612712Y-112191818D01*
X158740677Y-112353270D01*
X158745370Y-112357264D01*
X158745371Y-112357265D01*
X158886591Y-112477452D01*
X158897564Y-112486791D01*
X158902942Y-112489797D01*
X158902944Y-112489798D01*
X158934563Y-112507469D01*
X159077398Y-112587297D01*
X159172238Y-112618113D01*
X159267471Y-112649056D01*
X159267475Y-112649057D01*
X159273329Y-112650959D01*
X159477894Y-112675351D01*
X159484029Y-112674879D01*
X159484031Y-112674879D01*
X159540039Y-112670569D01*
X159683300Y-112659546D01*
X159689230Y-112657890D01*
X159689232Y-112657890D01*
X159875797Y-112605800D01*
X159875796Y-112605800D01*
X159881725Y-112604145D01*
X159887214Y-112601372D01*
X159887220Y-112601370D01*
X160034860Y-112526791D01*
X160065610Y-112511258D01*
X160091760Y-112490828D01*
X160171903Y-112428213D01*
X160227951Y-112384424D01*
X160244743Y-112364971D01*
X160358540Y-112233134D01*
X160358540Y-112233133D01*
X160362564Y-112228472D01*
X160383387Y-112191818D01*
X160409495Y-112145858D01*
X160464323Y-112049344D01*
X160529351Y-111853863D01*
X160547100Y-111713367D01*
X161415906Y-111713367D01*
X161416263Y-111720184D01*
X161416263Y-111720188D01*
X161417649Y-111746633D01*
X161425349Y-111893564D01*
X161427162Y-111900144D01*
X161427162Y-111900147D01*
X161454928Y-112000948D01*
X161473268Y-112067530D01*
X161557424Y-112227148D01*
X161561826Y-112232357D01*
X161561828Y-112232360D01*
X161669487Y-112359757D01*
X161669491Y-112359761D01*
X161673894Y-112364971D01*
X161679318Y-112369118D01*
X161679319Y-112369119D01*
X161811821Y-112470425D01*
X161811825Y-112470428D01*
X161817242Y-112474569D01*
X161823422Y-112477451D01*
X161823424Y-112477452D01*
X161887796Y-112507469D01*
X161980780Y-112550828D01*
X162058984Y-112568309D01*
X162151835Y-112589064D01*
X162151841Y-112589065D01*
X162156879Y-112590191D01*
X162162406Y-112590500D01*
X162295077Y-112590500D01*
X162299487Y-112590021D01*
X162352241Y-112584290D01*
X162429389Y-112575909D01*
X162600409Y-112518355D01*
X162612221Y-112511258D01*
X162749228Y-112428935D01*
X162755080Y-112425419D01*
X162784852Y-112397265D01*
X162881229Y-112306126D01*
X162881231Y-112306124D01*
X162886187Y-112301437D01*
X162987612Y-112152195D01*
X162990147Y-112145858D01*
X163052089Y-111990992D01*
X163052090Y-111990987D01*
X163054623Y-111984655D01*
X163070832Y-111886743D01*
X163082979Y-111813371D01*
X163082979Y-111813367D01*
X163084094Y-111806633D01*
X163075638Y-111645262D01*
X163904520Y-111645262D01*
X163905036Y-111651406D01*
X163919760Y-111826743D01*
X163921759Y-111850553D01*
X163923458Y-111856478D01*
X163968646Y-112014066D01*
X163978544Y-112048586D01*
X163981359Y-112054063D01*
X163981360Y-112054066D01*
X164045592Y-112179048D01*
X164072712Y-112231818D01*
X164200677Y-112393270D01*
X164205370Y-112397264D01*
X164205371Y-112397265D01*
X164350210Y-112520532D01*
X164357564Y-112526791D01*
X164362942Y-112529797D01*
X164362944Y-112529798D01*
X164364077Y-112530431D01*
X164537398Y-112627297D01*
X164604365Y-112649056D01*
X164727471Y-112689056D01*
X164727475Y-112689057D01*
X164733329Y-112690959D01*
X164937894Y-112715351D01*
X164944029Y-112714879D01*
X164944031Y-112714879D01*
X165000039Y-112710569D01*
X165143300Y-112699546D01*
X165149230Y-112697890D01*
X165149232Y-112697890D01*
X165284874Y-112660018D01*
X165341725Y-112644145D01*
X165347214Y-112641372D01*
X165347220Y-112641370D01*
X165520116Y-112554033D01*
X165525610Y-112551258D01*
X165552268Y-112530431D01*
X165629072Y-112470425D01*
X165687951Y-112424424D01*
X165716084Y-112391832D01*
X165818540Y-112273134D01*
X165818540Y-112273133D01*
X165822564Y-112268472D01*
X165843079Y-112232360D01*
X165877163Y-112172360D01*
X165924323Y-112089344D01*
X165989351Y-111893863D01*
X166015171Y-111689474D01*
X166015583Y-111660000D01*
X165995480Y-111454970D01*
X165935935Y-111257749D01*
X165839218Y-111075849D01*
X165732631Y-110945161D01*
X165712906Y-110920975D01*
X165712903Y-110920972D01*
X165709011Y-110916200D01*
X165691786Y-110901950D01*
X165555025Y-110788811D01*
X165555021Y-110788809D01*
X165550275Y-110784882D01*
X165369055Y-110686897D01*
X165172254Y-110625977D01*
X165166129Y-110625333D01*
X165166128Y-110625333D01*
X164973498Y-110605087D01*
X164973496Y-110605087D01*
X164967369Y-110604443D01*
X164880529Y-110612346D01*
X164768342Y-110622555D01*
X164768339Y-110622556D01*
X164762203Y-110623114D01*
X164564572Y-110681280D01*
X164382002Y-110776726D01*
X164377201Y-110780586D01*
X164377198Y-110780588D01*
X164226254Y-110901950D01*
X164221447Y-110905815D01*
X164089024Y-111063630D01*
X164086056Y-111069028D01*
X164086053Y-111069033D01*
X164014733Y-111198765D01*
X163989776Y-111244162D01*
X163927484Y-111440532D01*
X163926798Y-111446649D01*
X163926797Y-111446653D01*
X163906632Y-111626436D01*
X163904520Y-111645262D01*
X163075638Y-111645262D01*
X163074651Y-111626436D01*
X163071913Y-111616494D01*
X163028545Y-111459052D01*
X163026732Y-111452470D01*
X162942576Y-111292852D01*
X162938174Y-111287643D01*
X162938172Y-111287640D01*
X162830513Y-111160243D01*
X162830509Y-111160239D01*
X162826106Y-111155029D01*
X162820681Y-111150881D01*
X162688179Y-111049575D01*
X162688175Y-111049572D01*
X162682758Y-111045431D01*
X162676578Y-111042549D01*
X162676576Y-111042548D01*
X162596399Y-111005161D01*
X162519220Y-110969172D01*
X162403718Y-110943354D01*
X162348165Y-110930936D01*
X162348159Y-110930935D01*
X162343121Y-110929809D01*
X162337594Y-110929500D01*
X162204923Y-110929500D01*
X162070611Y-110944091D01*
X161899591Y-111001645D01*
X161744920Y-111094581D01*
X161739960Y-111099272D01*
X161739958Y-111099273D01*
X161629042Y-111204162D01*
X161613813Y-111218563D01*
X161512388Y-111367805D01*
X161509855Y-111374139D01*
X161509853Y-111374142D01*
X161447911Y-111529008D01*
X161447910Y-111529013D01*
X161445377Y-111535345D01*
X161432785Y-111611406D01*
X161424158Y-111663522D01*
X161415906Y-111713367D01*
X160547100Y-111713367D01*
X160555171Y-111649474D01*
X160555583Y-111620000D01*
X160535480Y-111414970D01*
X160475935Y-111217749D01*
X160379218Y-111035849D01*
X160285529Y-110920975D01*
X160252906Y-110880975D01*
X160252903Y-110880972D01*
X160249011Y-110876200D01*
X160231786Y-110861950D01*
X160095025Y-110748811D01*
X160095021Y-110748809D01*
X160090275Y-110744882D01*
X159909055Y-110646897D01*
X159712254Y-110585977D01*
X159706129Y-110585333D01*
X159706128Y-110585333D01*
X159513498Y-110565087D01*
X159513496Y-110565087D01*
X159507369Y-110564443D01*
X159420529Y-110572346D01*
X159308342Y-110582555D01*
X159308339Y-110582556D01*
X159302203Y-110583114D01*
X159104572Y-110641280D01*
X158922002Y-110736726D01*
X158917201Y-110740586D01*
X158917198Y-110740588D01*
X158857221Y-110788811D01*
X158761447Y-110865815D01*
X158629024Y-111023630D01*
X158626056Y-111029028D01*
X158626053Y-111029033D01*
X158551742Y-111164205D01*
X158529776Y-111204162D01*
X158467484Y-111400532D01*
X158466798Y-111406649D01*
X158466797Y-111406653D01*
X158462040Y-111449068D01*
X158444520Y-111605262D01*
X148700500Y-111605262D01*
X148700500Y-109065262D01*
X158444520Y-109065262D01*
X158461759Y-109270553D01*
X158518544Y-109468586D01*
X158521359Y-109474063D01*
X158521360Y-109474066D01*
X158562804Y-109554707D01*
X158612712Y-109651818D01*
X158740677Y-109813270D01*
X158745370Y-109817264D01*
X158745371Y-109817265D01*
X158782001Y-109848439D01*
X158897564Y-109946791D01*
X159077398Y-110047297D01*
X159172238Y-110078113D01*
X159267471Y-110109056D01*
X159267475Y-110109057D01*
X159273329Y-110110959D01*
X159477894Y-110135351D01*
X159484029Y-110134879D01*
X159484031Y-110134879D01*
X159540039Y-110130569D01*
X159683300Y-110119546D01*
X159689230Y-110117890D01*
X159689232Y-110117890D01*
X159875797Y-110065800D01*
X159875796Y-110065800D01*
X159881725Y-110064145D01*
X159887214Y-110061372D01*
X159887220Y-110061370D01*
X160034860Y-109986791D01*
X160065610Y-109971258D01*
X160227951Y-109844424D01*
X160355509Y-109696646D01*
X160358540Y-109693134D01*
X160358540Y-109693133D01*
X160362564Y-109688472D01*
X160383387Y-109651818D01*
X160441600Y-109549344D01*
X160464323Y-109509344D01*
X160529351Y-109313863D01*
X160555171Y-109109474D01*
X160555230Y-109105262D01*
X163904520Y-109105262D01*
X163905036Y-109111406D01*
X163918898Y-109276478D01*
X163921759Y-109310553D01*
X163923458Y-109316478D01*
X163968646Y-109474066D01*
X163978544Y-109508586D01*
X163981359Y-109514063D01*
X163981360Y-109514066D01*
X164002247Y-109554707D01*
X164072712Y-109691818D01*
X164200677Y-109853270D01*
X164205370Y-109857264D01*
X164205371Y-109857265D01*
X164334861Y-109967469D01*
X164357564Y-109986791D01*
X164537398Y-110087297D01*
X164604365Y-110109056D01*
X164727471Y-110149056D01*
X164727475Y-110149057D01*
X164733329Y-110150959D01*
X164937894Y-110175351D01*
X164944029Y-110174879D01*
X164944031Y-110174879D01*
X165000039Y-110170569D01*
X165143300Y-110159546D01*
X165149230Y-110157890D01*
X165149232Y-110157890D01*
X165284874Y-110120018D01*
X165341725Y-110104145D01*
X165347214Y-110101372D01*
X165347220Y-110101370D01*
X165520116Y-110014033D01*
X165525610Y-110011258D01*
X165687951Y-109884424D01*
X165719208Y-109848213D01*
X165818540Y-109733134D01*
X165818540Y-109733133D01*
X165822564Y-109728472D01*
X165843387Y-109691818D01*
X165921276Y-109554707D01*
X165924323Y-109549344D01*
X165989351Y-109353863D01*
X166015171Y-109149474D01*
X166015583Y-109120000D01*
X165995480Y-108914970D01*
X165935935Y-108717749D01*
X165839218Y-108535849D01*
X165765859Y-108445902D01*
X165712906Y-108380975D01*
X165712903Y-108380972D01*
X165709011Y-108376200D01*
X165691786Y-108361950D01*
X165555025Y-108248811D01*
X165555021Y-108248809D01*
X165550275Y-108244882D01*
X165369055Y-108146897D01*
X165172254Y-108085977D01*
X165166129Y-108085333D01*
X165166128Y-108085333D01*
X164973498Y-108065087D01*
X164973496Y-108065087D01*
X164967369Y-108064443D01*
X164880529Y-108072346D01*
X164768342Y-108082555D01*
X164768339Y-108082556D01*
X164762203Y-108083114D01*
X164564572Y-108141280D01*
X164382002Y-108236726D01*
X164377201Y-108240586D01*
X164377198Y-108240588D01*
X164263167Y-108332271D01*
X164221447Y-108365815D01*
X164089024Y-108523630D01*
X164086056Y-108529028D01*
X164086053Y-108529033D01*
X164079315Y-108541290D01*
X163989776Y-108704162D01*
X163927484Y-108900532D01*
X163926798Y-108906649D01*
X163926797Y-108906653D01*
X163905207Y-109099137D01*
X163904520Y-109105262D01*
X160555230Y-109105262D01*
X160555583Y-109080000D01*
X160535480Y-108874970D01*
X160475935Y-108677749D01*
X160379218Y-108495849D01*
X160285529Y-108380975D01*
X160252906Y-108340975D01*
X160252903Y-108340972D01*
X160249011Y-108336200D01*
X160231786Y-108321950D01*
X160095025Y-108208811D01*
X160095021Y-108208809D01*
X160090275Y-108204882D01*
X159909055Y-108106897D01*
X159712254Y-108045977D01*
X159706129Y-108045333D01*
X159706128Y-108045333D01*
X159513498Y-108025087D01*
X159513496Y-108025087D01*
X159507369Y-108024443D01*
X159420529Y-108032346D01*
X159308342Y-108042555D01*
X159308339Y-108042556D01*
X159302203Y-108043114D01*
X159104572Y-108101280D01*
X158922002Y-108196726D01*
X158917201Y-108200586D01*
X158917198Y-108200588D01*
X158857221Y-108248811D01*
X158761447Y-108325815D01*
X158629024Y-108483630D01*
X158626056Y-108489028D01*
X158626053Y-108489033D01*
X158602942Y-108531073D01*
X158529776Y-108664162D01*
X158467484Y-108860532D01*
X158466798Y-108866649D01*
X158466797Y-108866653D01*
X158462040Y-108909068D01*
X158444520Y-109065262D01*
X148700500Y-109065262D01*
X148700500Y-107928250D01*
X148693015Y-107825958D01*
X148641321Y-107611463D01*
X148551404Y-107409979D01*
X148548130Y-107405224D01*
X148429550Y-107233010D01*
X148429547Y-107233006D01*
X148426276Y-107228256D01*
X148270126Y-107072379D01*
X148265364Y-107069112D01*
X148265360Y-107069109D01*
X148092949Y-106950836D01*
X148092948Y-106950836D01*
X148088185Y-106947568D01*
X147966272Y-106893417D01*
X147891832Y-106860351D01*
X147891828Y-106860350D01*
X147886545Y-106858003D01*
X147867958Y-106853558D01*
X147676967Y-106807880D01*
X147676961Y-106807879D01*
X147671960Y-106806683D01*
X147666832Y-106806315D01*
X147666829Y-106806315D01*
X147574000Y-106799661D01*
X147573992Y-106799661D01*
X147571750Y-106799500D01*
X145428250Y-106799500D01*
X145425955Y-106799668D01*
X145425953Y-106799668D01*
X145331095Y-106806609D01*
X145331094Y-106806609D01*
X145325958Y-106806985D01*
X145320957Y-106808190D01*
X145320952Y-106808191D01*
X145178086Y-106842623D01*
X145111463Y-106858679D01*
X144909979Y-106948596D01*
X144905225Y-106951869D01*
X144905224Y-106951870D01*
X144733010Y-107070450D01*
X144733006Y-107070453D01*
X144728256Y-107073724D01*
X144572379Y-107229874D01*
X144569112Y-107234636D01*
X144569109Y-107234640D01*
X144512429Y-107317265D01*
X144447568Y-107411815D01*
X144398906Y-107521370D01*
X144361233Y-107606184D01*
X144358003Y-107613455D01*
X144306683Y-107828040D01*
X144306315Y-107833168D01*
X144306315Y-107833171D01*
X144299665Y-107925953D01*
X144299500Y-107928250D01*
X144299500Y-112071750D01*
X136700500Y-112071750D01*
X136700500Y-107928250D01*
X136693015Y-107825958D01*
X136641321Y-107611463D01*
X136551404Y-107409979D01*
X136548130Y-107405224D01*
X136429550Y-107233010D01*
X136429547Y-107233006D01*
X136426276Y-107228256D01*
X136270126Y-107072379D01*
X136265364Y-107069112D01*
X136265360Y-107069109D01*
X136092949Y-106950836D01*
X136092948Y-106950836D01*
X136088185Y-106947568D01*
X135966272Y-106893417D01*
X135891832Y-106860351D01*
X135891828Y-106860350D01*
X135886545Y-106858003D01*
X135867958Y-106853558D01*
X135676967Y-106807880D01*
X135676961Y-106807879D01*
X135671960Y-106806683D01*
X135666832Y-106806315D01*
X135666829Y-106806315D01*
X135574000Y-106799661D01*
X135573992Y-106799661D01*
X135571750Y-106799500D01*
X133428250Y-106799500D01*
X133425955Y-106799668D01*
X133425953Y-106799668D01*
X133331095Y-106806609D01*
X133331094Y-106806609D01*
X133325958Y-106806985D01*
X133320957Y-106808190D01*
X133320952Y-106808191D01*
X133178086Y-106842623D01*
X133111463Y-106858679D01*
X132909979Y-106948596D01*
X132905225Y-106951869D01*
X132905224Y-106951870D01*
X132733010Y-107070450D01*
X132733006Y-107070453D01*
X132728256Y-107073724D01*
X132572379Y-107229874D01*
X132569112Y-107234636D01*
X132569109Y-107234640D01*
X132512429Y-107317265D01*
X132447568Y-107411815D01*
X132398906Y-107521370D01*
X132361233Y-107606184D01*
X132358003Y-107613455D01*
X132306683Y-107828040D01*
X132306315Y-107833168D01*
X132306315Y-107833171D01*
X132299665Y-107925953D01*
X132299500Y-107928250D01*
X132299500Y-112071750D01*
X125345790Y-112071750D01*
X125402089Y-111930992D01*
X125402090Y-111930987D01*
X125404623Y-111924655D01*
X125424529Y-111804411D01*
X125432979Y-111753371D01*
X125432979Y-111753367D01*
X125434094Y-111746633D01*
X125432709Y-111720188D01*
X125429370Y-111656494D01*
X125424651Y-111566436D01*
X125417942Y-111542077D01*
X125378545Y-111399052D01*
X125376732Y-111392470D01*
X125292576Y-111232852D01*
X125288174Y-111227643D01*
X125288172Y-111227640D01*
X125180513Y-111100243D01*
X125180509Y-111100239D01*
X125176106Y-111095029D01*
X125170681Y-111090881D01*
X125038179Y-110989575D01*
X125038175Y-110989572D01*
X125032758Y-110985431D01*
X125026578Y-110982549D01*
X125026576Y-110982548D01*
X124944104Y-110944091D01*
X124869220Y-110909172D01*
X124753718Y-110883354D01*
X124698165Y-110870936D01*
X124698159Y-110870935D01*
X124693121Y-110869809D01*
X124687594Y-110869500D01*
X124554923Y-110869500D01*
X124551527Y-110869869D01*
X124551526Y-110869869D01*
X124517659Y-110873548D01*
X124420611Y-110884091D01*
X124249591Y-110941645D01*
X124243741Y-110945160D01*
X124243739Y-110945161D01*
X124198979Y-110972056D01*
X124094920Y-111034581D01*
X124089960Y-111039272D01*
X124089958Y-111039273D01*
X124025485Y-111100243D01*
X123963813Y-111158563D01*
X123862388Y-111307805D01*
X123859855Y-111314139D01*
X123859853Y-111314142D01*
X123797911Y-111469008D01*
X123797910Y-111469013D01*
X123795377Y-111475345D01*
X123794263Y-111482077D01*
X123767248Y-111645262D01*
X123765906Y-111653367D01*
X123014933Y-111653367D01*
X122995480Y-111454970D01*
X122935935Y-111257749D01*
X122839218Y-111075849D01*
X122732631Y-110945161D01*
X122712906Y-110920975D01*
X122712903Y-110920972D01*
X122709011Y-110916200D01*
X122691786Y-110901950D01*
X122555025Y-110788811D01*
X122555021Y-110788809D01*
X122550275Y-110784882D01*
X122369055Y-110686897D01*
X122172254Y-110625977D01*
X122166129Y-110625333D01*
X122166128Y-110625333D01*
X121973498Y-110605087D01*
X121973496Y-110605087D01*
X121967369Y-110604443D01*
X121880529Y-110612346D01*
X121768342Y-110622555D01*
X121768339Y-110622556D01*
X121762203Y-110623114D01*
X121564572Y-110681280D01*
X121382002Y-110776726D01*
X121377201Y-110780586D01*
X121377198Y-110780588D01*
X121226254Y-110901950D01*
X121221447Y-110905815D01*
X121089024Y-111063630D01*
X121086056Y-111069028D01*
X121086053Y-111069033D01*
X121014733Y-111198765D01*
X120989776Y-111244162D01*
X120927484Y-111440532D01*
X120926798Y-111446649D01*
X120926797Y-111446653D01*
X120906632Y-111626436D01*
X120904520Y-111645262D01*
X117200000Y-111645262D01*
X117200000Y-109105262D01*
X120904520Y-109105262D01*
X120905036Y-109111406D01*
X120918898Y-109276478D01*
X120921759Y-109310553D01*
X120923458Y-109316478D01*
X120968646Y-109474066D01*
X120978544Y-109508586D01*
X120981359Y-109514063D01*
X120981360Y-109514066D01*
X121002247Y-109554707D01*
X121072712Y-109691818D01*
X121200677Y-109853270D01*
X121205370Y-109857264D01*
X121205371Y-109857265D01*
X121334861Y-109967469D01*
X121357564Y-109986791D01*
X121537398Y-110087297D01*
X121604365Y-110109056D01*
X121727471Y-110149056D01*
X121727475Y-110149057D01*
X121733329Y-110150959D01*
X121937894Y-110175351D01*
X121944029Y-110174879D01*
X121944031Y-110174879D01*
X122000039Y-110170569D01*
X122143300Y-110159546D01*
X122149230Y-110157890D01*
X122149232Y-110157890D01*
X122284874Y-110120018D01*
X122341725Y-110104145D01*
X122347214Y-110101372D01*
X122347220Y-110101370D01*
X122520116Y-110014033D01*
X122525610Y-110011258D01*
X122687951Y-109884424D01*
X122719208Y-109848213D01*
X122818540Y-109733134D01*
X122818540Y-109733133D01*
X122822564Y-109728472D01*
X122843387Y-109691818D01*
X122921276Y-109554707D01*
X122924323Y-109549344D01*
X122989351Y-109353863D01*
X123015171Y-109149474D01*
X123015583Y-109120000D01*
X122995480Y-108914970D01*
X122935935Y-108717749D01*
X122839218Y-108535849D01*
X122765859Y-108445902D01*
X122712906Y-108380975D01*
X122712903Y-108380972D01*
X122709011Y-108376200D01*
X122691786Y-108361950D01*
X122555025Y-108248811D01*
X122555021Y-108248809D01*
X122550275Y-108244882D01*
X122369055Y-108146897D01*
X122172254Y-108085977D01*
X122166129Y-108085333D01*
X122166128Y-108085333D01*
X121973498Y-108065087D01*
X121973496Y-108065087D01*
X121967369Y-108064443D01*
X121880529Y-108072346D01*
X121768342Y-108082555D01*
X121768339Y-108082556D01*
X121762203Y-108083114D01*
X121564572Y-108141280D01*
X121382002Y-108236726D01*
X121377201Y-108240586D01*
X121377198Y-108240588D01*
X121263167Y-108332271D01*
X121221447Y-108365815D01*
X121089024Y-108523630D01*
X121086056Y-108529028D01*
X121086053Y-108529033D01*
X121079315Y-108541290D01*
X120989776Y-108704162D01*
X120927484Y-108900532D01*
X120926798Y-108906649D01*
X120926797Y-108906653D01*
X120905207Y-109099137D01*
X120904520Y-109105262D01*
X117200000Y-109105262D01*
X117200000Y-107449748D01*
X120909500Y-107449748D01*
X120910707Y-107455816D01*
X120914331Y-107474033D01*
X120921133Y-107508231D01*
X120965448Y-107574552D01*
X121031769Y-107618867D01*
X121043938Y-107621288D01*
X121043939Y-107621288D01*
X121084184Y-107629293D01*
X121090252Y-107630500D01*
X122829748Y-107630500D01*
X122835816Y-107629293D01*
X122876061Y-107621288D01*
X122876062Y-107621288D01*
X122888231Y-107618867D01*
X122954552Y-107574552D01*
X122998867Y-107508231D01*
X123005670Y-107474033D01*
X123009293Y-107455816D01*
X123010500Y-107449748D01*
X123010500Y-106525262D01*
X158444520Y-106525262D01*
X158461759Y-106730553D01*
X158463458Y-106736478D01*
X158498499Y-106858679D01*
X158518544Y-106928586D01*
X158521359Y-106934063D01*
X158521360Y-106934066D01*
X158591452Y-107070450D01*
X158612712Y-107111818D01*
X158740677Y-107273270D01*
X158745370Y-107277264D01*
X158745371Y-107277265D01*
X158782001Y-107308439D01*
X158897564Y-107406791D01*
X158902942Y-107409797D01*
X158902944Y-107409798D01*
X158916006Y-107417098D01*
X159077398Y-107507297D01*
X159172238Y-107538113D01*
X159267471Y-107569056D01*
X159267475Y-107569057D01*
X159273329Y-107570959D01*
X159477894Y-107595351D01*
X159484029Y-107594879D01*
X159484031Y-107594879D01*
X159540039Y-107590569D01*
X159683300Y-107579546D01*
X159689230Y-107577890D01*
X159689232Y-107577890D01*
X159875797Y-107525800D01*
X159875796Y-107525800D01*
X159881725Y-107524145D01*
X159887214Y-107521372D01*
X159887220Y-107521370D01*
X160041254Y-107443561D01*
X160065610Y-107431258D01*
X160086095Y-107415254D01*
X160211515Y-107317265D01*
X160227951Y-107304424D01*
X160288187Y-107234640D01*
X160358540Y-107153134D01*
X160358540Y-107153133D01*
X160362564Y-107148472D01*
X160383387Y-107111818D01*
X160406887Y-107070450D01*
X160464323Y-106969344D01*
X160529351Y-106773863D01*
X160555171Y-106569474D01*
X160555230Y-106565262D01*
X163904520Y-106565262D01*
X163905036Y-106571406D01*
X163918898Y-106736478D01*
X163921759Y-106770553D01*
X163923458Y-106776478D01*
X163973751Y-106951870D01*
X163978544Y-106968586D01*
X163981359Y-106974063D01*
X163981360Y-106974066D01*
X164031886Y-107072379D01*
X164072712Y-107151818D01*
X164200677Y-107313270D01*
X164205370Y-107317264D01*
X164205371Y-107317265D01*
X164334861Y-107427469D01*
X164357564Y-107446791D01*
X164537398Y-107547297D01*
X164604365Y-107569056D01*
X164727471Y-107609056D01*
X164727475Y-107609057D01*
X164733329Y-107610959D01*
X164937894Y-107635351D01*
X164944029Y-107634879D01*
X164944031Y-107634879D01*
X165016625Y-107629293D01*
X165143300Y-107619546D01*
X165149230Y-107617890D01*
X165149232Y-107617890D01*
X165284874Y-107580018D01*
X165341725Y-107564145D01*
X165347214Y-107561372D01*
X165347220Y-107561370D01*
X165520116Y-107474033D01*
X165525610Y-107471258D01*
X165687951Y-107344424D01*
X165719208Y-107308213D01*
X165818540Y-107193134D01*
X165818540Y-107193133D01*
X165822564Y-107188472D01*
X165843387Y-107151818D01*
X165869221Y-107106341D01*
X165924323Y-107009344D01*
X165989351Y-106813863D01*
X166015171Y-106609474D01*
X166015583Y-106580000D01*
X165995480Y-106374970D01*
X165935935Y-106177749D01*
X165839218Y-105995849D01*
X165765859Y-105905902D01*
X165712906Y-105840975D01*
X165712903Y-105840972D01*
X165709011Y-105836200D01*
X165691786Y-105821950D01*
X165555025Y-105708811D01*
X165555021Y-105708809D01*
X165550275Y-105704882D01*
X165369055Y-105606897D01*
X165172254Y-105545977D01*
X165166129Y-105545333D01*
X165166128Y-105545333D01*
X164973498Y-105525087D01*
X164973496Y-105525087D01*
X164967369Y-105524443D01*
X164880529Y-105532346D01*
X164768342Y-105542555D01*
X164768339Y-105542556D01*
X164762203Y-105543114D01*
X164564572Y-105601280D01*
X164382002Y-105696726D01*
X164377201Y-105700586D01*
X164377198Y-105700588D01*
X164263167Y-105792271D01*
X164221447Y-105825815D01*
X164089024Y-105983630D01*
X164086056Y-105989028D01*
X164086053Y-105989033D01*
X164079315Y-106001290D01*
X163989776Y-106164162D01*
X163927484Y-106360532D01*
X163926798Y-106366649D01*
X163926797Y-106366653D01*
X163905207Y-106559137D01*
X163904520Y-106565262D01*
X160555230Y-106565262D01*
X160555583Y-106540000D01*
X160535480Y-106334970D01*
X160475935Y-106137749D01*
X160379218Y-105955849D01*
X160285529Y-105840975D01*
X160252906Y-105800975D01*
X160252903Y-105800972D01*
X160249011Y-105796200D01*
X160145118Y-105710252D01*
X160095025Y-105668811D01*
X160095021Y-105668809D01*
X160090275Y-105664882D01*
X159909055Y-105566897D01*
X159712254Y-105505977D01*
X159706129Y-105505333D01*
X159706128Y-105505333D01*
X159513498Y-105485087D01*
X159513496Y-105485087D01*
X159507369Y-105484443D01*
X159420529Y-105492346D01*
X159308342Y-105502555D01*
X159308339Y-105502556D01*
X159302203Y-105503114D01*
X159104572Y-105561280D01*
X158922002Y-105656726D01*
X158917201Y-105660586D01*
X158917198Y-105660588D01*
X158766254Y-105781950D01*
X158761447Y-105785815D01*
X158629024Y-105943630D01*
X158626056Y-105949028D01*
X158626053Y-105949033D01*
X158602942Y-105991073D01*
X158529776Y-106124162D01*
X158467484Y-106320532D01*
X158466798Y-106326649D01*
X158466797Y-106326653D01*
X158462040Y-106369068D01*
X158444520Y-106525262D01*
X123010500Y-106525262D01*
X123010500Y-105710252D01*
X123002257Y-105668811D01*
X123001288Y-105663939D01*
X123001288Y-105663938D01*
X122998867Y-105651769D01*
X122954552Y-105585448D01*
X122888231Y-105541133D01*
X122876062Y-105538712D01*
X122876061Y-105538712D01*
X122835816Y-105530707D01*
X122829748Y-105529500D01*
X121090252Y-105529500D01*
X121084184Y-105530707D01*
X121043939Y-105538712D01*
X121043938Y-105538712D01*
X121031769Y-105541133D01*
X120965448Y-105585448D01*
X120921133Y-105651769D01*
X120918712Y-105663938D01*
X120918712Y-105663939D01*
X120917743Y-105668811D01*
X120909500Y-105710252D01*
X120909500Y-107449748D01*
X117200000Y-107449748D01*
X117200000Y-104869748D01*
X158449500Y-104869748D01*
X158461133Y-104928231D01*
X158505448Y-104994552D01*
X158571769Y-105038867D01*
X158583938Y-105041288D01*
X158583939Y-105041288D01*
X158624184Y-105049293D01*
X158630252Y-105050500D01*
X160369748Y-105050500D01*
X160375816Y-105049293D01*
X160416061Y-105041288D01*
X160416062Y-105041288D01*
X160428231Y-105038867D01*
X160494552Y-104994552D01*
X160538867Y-104928231D01*
X160550500Y-104869748D01*
X160550500Y-103130252D01*
X160538867Y-103071769D01*
X160494552Y-103005448D01*
X160428231Y-102961133D01*
X160416062Y-102958712D01*
X160416061Y-102958712D01*
X160375816Y-102950707D01*
X160369748Y-102949500D01*
X158630252Y-102949500D01*
X158624184Y-102950707D01*
X158583939Y-102958712D01*
X158583938Y-102958712D01*
X158571769Y-102961133D01*
X158505448Y-103005448D01*
X158461133Y-103071769D01*
X158449500Y-103130252D01*
X158449500Y-104869748D01*
X117200000Y-104869748D01*
X117200000Y-101605262D01*
X118944520Y-101605262D01*
X118961759Y-101810553D01*
X119018544Y-102008586D01*
X119021359Y-102014063D01*
X119021360Y-102014066D01*
X119042247Y-102054707D01*
X119112712Y-102191818D01*
X119240677Y-102353270D01*
X119397564Y-102486791D01*
X119577398Y-102587297D01*
X119672238Y-102618113D01*
X119767471Y-102649056D01*
X119767475Y-102649057D01*
X119773329Y-102650959D01*
X119977894Y-102675351D01*
X119984029Y-102674879D01*
X119984031Y-102674879D01*
X120040039Y-102670569D01*
X120183300Y-102659546D01*
X120189230Y-102657890D01*
X120189232Y-102657890D01*
X120375797Y-102605800D01*
X120375796Y-102605800D01*
X120381725Y-102604145D01*
X120387214Y-102601372D01*
X120387220Y-102601370D01*
X120560116Y-102514033D01*
X120565610Y-102511258D01*
X120727951Y-102384424D01*
X120862564Y-102228472D01*
X120883387Y-102191818D01*
X120961276Y-102054707D01*
X120964323Y-102049344D01*
X121029351Y-101853863D01*
X121055171Y-101649474D01*
X121055583Y-101620000D01*
X121035480Y-101414970D01*
X120975935Y-101217749D01*
X120879218Y-101035849D01*
X120805859Y-100945902D01*
X120752906Y-100880975D01*
X120752903Y-100880972D01*
X120749011Y-100876200D01*
X120731786Y-100861950D01*
X120595025Y-100748811D01*
X120595021Y-100748809D01*
X120590275Y-100744882D01*
X120409055Y-100646897D01*
X120212254Y-100585977D01*
X120206129Y-100585333D01*
X120206128Y-100585333D01*
X120013498Y-100565087D01*
X120013496Y-100565087D01*
X120007369Y-100564443D01*
X119920529Y-100572346D01*
X119808342Y-100582555D01*
X119808339Y-100582556D01*
X119802203Y-100583114D01*
X119604572Y-100641280D01*
X119422002Y-100736726D01*
X119417201Y-100740586D01*
X119417198Y-100740588D01*
X119406971Y-100748811D01*
X119261447Y-100865815D01*
X119129024Y-101023630D01*
X119126056Y-101029028D01*
X119126053Y-101029033D01*
X119119315Y-101041290D01*
X119029776Y-101204162D01*
X118967484Y-101400532D01*
X118966798Y-101406649D01*
X118966797Y-101406653D01*
X118945207Y-101599137D01*
X118944520Y-101605262D01*
X117200000Y-101605262D01*
X117200000Y-99065262D01*
X118944520Y-99065262D01*
X118961759Y-99270553D01*
X119018544Y-99468586D01*
X119021359Y-99474063D01*
X119021360Y-99474066D01*
X119042247Y-99514707D01*
X119112712Y-99651818D01*
X119240677Y-99813270D01*
X119397564Y-99946791D01*
X119577398Y-100047297D01*
X119672238Y-100078113D01*
X119767471Y-100109056D01*
X119767475Y-100109057D01*
X119773329Y-100110959D01*
X119977894Y-100135351D01*
X119984029Y-100134879D01*
X119984031Y-100134879D01*
X120040039Y-100130569D01*
X120183300Y-100119546D01*
X120189230Y-100117890D01*
X120189232Y-100117890D01*
X120375797Y-100065800D01*
X120375796Y-100065800D01*
X120381725Y-100064145D01*
X120387214Y-100061372D01*
X120387220Y-100061370D01*
X120560116Y-99974033D01*
X120565610Y-99971258D01*
X120727951Y-99844424D01*
X120862564Y-99688472D01*
X120883387Y-99651818D01*
X120961276Y-99514707D01*
X120964323Y-99509344D01*
X121029351Y-99313863D01*
X121055171Y-99109474D01*
X121055583Y-99080000D01*
X121035480Y-98874970D01*
X120975935Y-98677749D01*
X120879218Y-98495849D01*
X120805859Y-98405902D01*
X120752906Y-98340975D01*
X120752903Y-98340972D01*
X120749011Y-98336200D01*
X120731786Y-98321950D01*
X120595025Y-98208811D01*
X120595021Y-98208809D01*
X120590275Y-98204882D01*
X120409055Y-98106897D01*
X120212254Y-98045977D01*
X120206129Y-98045333D01*
X120206128Y-98045333D01*
X120013498Y-98025087D01*
X120013496Y-98025087D01*
X120007369Y-98024443D01*
X119920529Y-98032346D01*
X119808342Y-98042555D01*
X119808339Y-98042556D01*
X119802203Y-98043114D01*
X119604572Y-98101280D01*
X119422002Y-98196726D01*
X119417201Y-98200586D01*
X119417198Y-98200588D01*
X119406971Y-98208811D01*
X119261447Y-98325815D01*
X119129024Y-98483630D01*
X119126056Y-98489028D01*
X119126053Y-98489033D01*
X119119315Y-98501290D01*
X119029776Y-98664162D01*
X118967484Y-98860532D01*
X118966798Y-98866649D01*
X118966797Y-98866653D01*
X118945207Y-99059137D01*
X118944520Y-99065262D01*
X117200000Y-99065262D01*
X117200000Y-96525262D01*
X118944520Y-96525262D01*
X118945036Y-96531406D01*
X118958388Y-96690405D01*
X118961759Y-96730553D01*
X118963458Y-96736478D01*
X119008931Y-96895060D01*
X119018544Y-96928586D01*
X119021359Y-96934063D01*
X119021360Y-96934066D01*
X119099070Y-97085273D01*
X119112712Y-97111818D01*
X119240677Y-97273270D01*
X119245370Y-97277264D01*
X119245371Y-97277265D01*
X119279994Y-97306731D01*
X119397564Y-97406791D01*
X119577398Y-97507297D01*
X119656325Y-97532942D01*
X119767471Y-97569056D01*
X119767475Y-97569057D01*
X119773329Y-97570959D01*
X119977894Y-97595351D01*
X119984029Y-97594879D01*
X119984031Y-97594879D01*
X120040039Y-97590569D01*
X120183300Y-97579546D01*
X120189230Y-97577890D01*
X120189232Y-97577890D01*
X120321883Y-97540853D01*
X120381725Y-97524145D01*
X120387214Y-97521372D01*
X120387220Y-97521370D01*
X120510399Y-97459147D01*
X167520654Y-97459147D01*
X167521152Y-97467058D01*
X167527569Y-97569056D01*
X167530894Y-97621916D01*
X167581292Y-97777025D01*
X167668681Y-97914727D01*
X167787569Y-98026371D01*
X167930487Y-98104940D01*
X168014856Y-98126603D01*
X168080777Y-98143529D01*
X168080778Y-98143529D01*
X168088454Y-98145500D01*
X168870608Y-98145500D01*
X168928423Y-98138196D01*
X168983940Y-98131183D01*
X168983943Y-98131182D01*
X168991805Y-98130189D01*
X168999171Y-98127272D01*
X168999173Y-98127272D01*
X169136073Y-98073069D01*
X169143443Y-98070151D01*
X169149856Y-98065491D01*
X169149859Y-98065490D01*
X169268970Y-97978952D01*
X169268974Y-97978948D01*
X169275387Y-97974289D01*
X169379345Y-97848625D01*
X169448786Y-97701056D01*
X169479346Y-97540853D01*
X169469106Y-97378084D01*
X169418708Y-97222975D01*
X169409080Y-97207803D01*
X169335565Y-97091964D01*
X169331319Y-97085273D01*
X169212431Y-96973629D01*
X169127487Y-96926931D01*
X169076462Y-96898880D01*
X169076461Y-96898879D01*
X169069513Y-96895060D01*
X168967306Y-96868817D01*
X168919223Y-96856471D01*
X168919222Y-96856471D01*
X168911546Y-96854500D01*
X168129392Y-96854500D01*
X168071577Y-96861804D01*
X168016060Y-96868817D01*
X168016057Y-96868818D01*
X168008195Y-96869811D01*
X168000829Y-96872728D01*
X168000827Y-96872728D01*
X167934775Y-96898880D01*
X167856557Y-96929849D01*
X167850144Y-96934509D01*
X167850141Y-96934510D01*
X167731030Y-97021048D01*
X167731026Y-97021052D01*
X167724613Y-97025711D01*
X167620655Y-97151375D01*
X167551214Y-97298944D01*
X167520654Y-97459147D01*
X120510399Y-97459147D01*
X120560116Y-97434033D01*
X120565610Y-97431258D01*
X120727951Y-97304424D01*
X120732682Y-97298944D01*
X120858540Y-97153134D01*
X120858540Y-97153133D01*
X120862564Y-97148472D01*
X120883387Y-97111818D01*
X120961276Y-96974707D01*
X120964323Y-96969344D01*
X121029351Y-96773863D01*
X121039819Y-96690996D01*
X165124500Y-96690996D01*
X165139181Y-96812313D01*
X165196973Y-96965255D01*
X165201274Y-96971513D01*
X165235319Y-97021048D01*
X165289579Y-97099997D01*
X165295249Y-97105048D01*
X165295250Y-97105050D01*
X165308265Y-97116646D01*
X165411652Y-97208760D01*
X165418361Y-97212312D01*
X165418362Y-97212313D01*
X165549434Y-97281712D01*
X165549436Y-97281713D01*
X165556145Y-97285265D01*
X165582047Y-97291771D01*
X165707345Y-97323244D01*
X165707349Y-97323244D01*
X165714716Y-97325095D01*
X165722315Y-97325135D01*
X165722317Y-97325135D01*
X165790347Y-97325491D01*
X165878210Y-97325951D01*
X165885590Y-97324179D01*
X165885592Y-97324179D01*
X166029811Y-97289556D01*
X166029815Y-97289555D01*
X166037190Y-97287784D01*
X166182476Y-97212796D01*
X166192895Y-97203707D01*
X166299956Y-97110312D01*
X166299959Y-97110309D01*
X166305681Y-97105317D01*
X166399693Y-96971552D01*
X166459083Y-96819224D01*
X166475500Y-96694527D01*
X166475500Y-96309004D01*
X166460819Y-96187687D01*
X166403027Y-96034745D01*
X166340405Y-95943630D01*
X166314723Y-95906262D01*
X166314722Y-95906261D01*
X166310421Y-95900003D01*
X166188348Y-95791240D01*
X166181638Y-95787687D01*
X166050566Y-95718288D01*
X166050564Y-95718287D01*
X166043855Y-95714735D01*
X165992785Y-95701907D01*
X165892655Y-95676756D01*
X165892651Y-95676756D01*
X165885284Y-95674905D01*
X165877685Y-95674865D01*
X165877683Y-95674865D01*
X165809653Y-95674509D01*
X165721790Y-95674049D01*
X165714410Y-95675821D01*
X165714408Y-95675821D01*
X165570189Y-95710444D01*
X165570185Y-95710445D01*
X165562810Y-95712216D01*
X165417524Y-95787204D01*
X165411802Y-95792196D01*
X165411800Y-95792197D01*
X165300044Y-95889688D01*
X165300041Y-95889691D01*
X165294319Y-95894683D01*
X165200307Y-96028448D01*
X165140917Y-96180776D01*
X165124500Y-96305473D01*
X165124500Y-96690996D01*
X121039819Y-96690996D01*
X121055171Y-96569474D01*
X121055583Y-96540000D01*
X121035480Y-96334970D01*
X120975935Y-96137749D01*
X120879218Y-95955849D01*
X120805859Y-95865902D01*
X120752906Y-95800975D01*
X120752903Y-95800972D01*
X120749011Y-95796200D01*
X120744262Y-95792271D01*
X120595025Y-95668811D01*
X120595021Y-95668809D01*
X120590275Y-95664882D01*
X120409055Y-95566897D01*
X120212254Y-95505977D01*
X120206129Y-95505333D01*
X120206128Y-95505333D01*
X120013498Y-95485087D01*
X120013496Y-95485087D01*
X120007369Y-95484443D01*
X119920529Y-95492346D01*
X119808342Y-95502555D01*
X119808339Y-95502556D01*
X119802203Y-95503114D01*
X119604572Y-95561280D01*
X119422002Y-95656726D01*
X119417201Y-95660586D01*
X119417198Y-95660588D01*
X119345434Y-95718288D01*
X119261447Y-95785815D01*
X119129024Y-95943630D01*
X119126056Y-95949028D01*
X119126053Y-95949033D01*
X119075028Y-96041848D01*
X119029776Y-96124162D01*
X118967484Y-96320532D01*
X118966798Y-96326649D01*
X118966797Y-96326653D01*
X118945207Y-96519137D01*
X118944520Y-96525262D01*
X117200000Y-96525262D01*
X117200000Y-94869748D01*
X118949500Y-94869748D01*
X118961133Y-94928231D01*
X119005448Y-94994552D01*
X119071769Y-95038867D01*
X119083938Y-95041288D01*
X119083939Y-95041288D01*
X119124184Y-95049293D01*
X119130252Y-95050500D01*
X120869748Y-95050500D01*
X120875816Y-95049293D01*
X120916061Y-95041288D01*
X120916062Y-95041288D01*
X120928231Y-95038867D01*
X120994552Y-94994552D01*
X121038867Y-94928231D01*
X121050500Y-94869748D01*
X121050500Y-93130252D01*
X121038867Y-93071769D01*
X120994552Y-93005448D01*
X120928231Y-92961133D01*
X120916062Y-92958712D01*
X120916061Y-92958712D01*
X120875816Y-92950707D01*
X120869748Y-92949500D01*
X119130252Y-92949500D01*
X119124184Y-92950707D01*
X119083939Y-92958712D01*
X119083938Y-92958712D01*
X119071769Y-92961133D01*
X119005448Y-93005448D01*
X118961133Y-93071769D01*
X118949500Y-93130252D01*
X118949500Y-94869748D01*
X117200000Y-94869748D01*
X117200000Y-92693823D01*
X129244391Y-92693823D01*
X129262980Y-92835979D01*
X129266597Y-92844199D01*
X129313462Y-92950707D01*
X129320720Y-92967203D01*
X129412970Y-93076948D01*
X129532313Y-93156390D01*
X129669157Y-93199142D01*
X129678129Y-93199306D01*
X129678132Y-93199307D01*
X129743463Y-93200504D01*
X129812499Y-93201770D01*
X129821533Y-93199307D01*
X129942155Y-93166422D01*
X129942158Y-93166421D01*
X129950817Y-93164060D01*
X129958467Y-93159363D01*
X129958469Y-93159362D01*
X130024001Y-93119125D01*
X130089929Y-93100500D01*
X136523339Y-93100500D01*
X136591460Y-93120502D01*
X136612434Y-93137405D01*
X137140229Y-93665200D01*
X137141985Y-93667234D01*
X137144323Y-93672017D01*
X137152852Y-93679929D01*
X137152853Y-93679930D01*
X137180225Y-93705321D01*
X137183630Y-93708601D01*
X137197025Y-93721996D01*
X137200995Y-93724720D01*
X137203643Y-93727045D01*
X137226394Y-93748149D01*
X137233416Y-93750950D01*
X137249919Y-93764149D01*
X137251872Y-93766102D01*
X137285898Y-93828414D01*
X137280833Y-93899229D01*
X137276834Y-93908741D01*
X137256447Y-93952163D01*
X137234391Y-94093823D01*
X137235555Y-94102725D01*
X137235555Y-94102728D01*
X137236814Y-94112354D01*
X137252980Y-94235979D01*
X137310720Y-94367203D01*
X137316497Y-94374076D01*
X137316498Y-94374077D01*
X137323792Y-94382754D01*
X137402970Y-94476948D01*
X137522313Y-94556390D01*
X137659157Y-94599142D01*
X137668129Y-94599306D01*
X137668132Y-94599307D01*
X137733463Y-94600504D01*
X137802499Y-94601770D01*
X137811533Y-94599307D01*
X137932158Y-94566421D01*
X137932160Y-94566420D01*
X137940817Y-94564060D01*
X138062991Y-94489045D01*
X138159200Y-94382754D01*
X138221710Y-94253733D01*
X138245496Y-94112354D01*
X138245647Y-94100000D01*
X138225323Y-93958082D01*
X138165984Y-93827572D01*
X138072400Y-93718963D01*
X138051353Y-93705321D01*
X138024780Y-93688096D01*
X137995508Y-93657986D01*
X137994036Y-93659196D01*
X137991974Y-93656686D01*
X137990022Y-93654310D01*
X137987842Y-93652130D01*
X137985785Y-93649862D01*
X137985945Y-93649717D01*
X137978825Y-93640710D01*
X137972573Y-93633815D01*
X137966468Y-93623911D01*
X137944680Y-93607343D01*
X137931861Y-93596149D01*
X137650008Y-93314296D01*
X137648252Y-93312262D01*
X137645914Y-93307479D01*
X137610012Y-93274175D01*
X137606607Y-93270895D01*
X137593212Y-93257500D01*
X137589242Y-93254776D01*
X137586594Y-93252451D01*
X137572371Y-93239258D01*
X137563843Y-93231347D01*
X137556821Y-93228546D01*
X137540318Y-93215347D01*
X136949519Y-92624548D01*
X136947763Y-92622514D01*
X136945425Y-92617731D01*
X136909523Y-92584427D01*
X136906118Y-92581147D01*
X136892723Y-92567752D01*
X136888753Y-92565028D01*
X136886105Y-92562703D01*
X136871881Y-92549508D01*
X136871878Y-92549506D01*
X136863354Y-92541599D01*
X136852550Y-92537289D01*
X136848561Y-92534767D01*
X136837773Y-92529006D01*
X136833448Y-92527089D01*
X136823854Y-92520508D01*
X136812535Y-92517822D01*
X136812533Y-92517821D01*
X136799873Y-92514817D01*
X136782276Y-92509252D01*
X136767638Y-92503412D01*
X136767635Y-92503411D01*
X136759378Y-92500117D01*
X136753085Y-92499500D01*
X136750006Y-92499500D01*
X136746933Y-92499350D01*
X136746944Y-92499134D01*
X136735569Y-92497802D01*
X136726254Y-92497346D01*
X136714934Y-92494660D01*
X136703405Y-92496229D01*
X136703404Y-92496229D01*
X136687827Y-92498349D01*
X136670836Y-92499500D01*
X130289456Y-92499500D01*
X130221335Y-92479498D01*
X130183306Y-92441384D01*
X130179701Y-92435747D01*
X130175984Y-92427572D01*
X130165719Y-92415659D01*
X130088260Y-92325763D01*
X130088257Y-92325760D01*
X130082400Y-92318963D01*
X129962095Y-92240985D01*
X129824739Y-92199907D01*
X129815763Y-92199852D01*
X129815762Y-92199852D01*
X129755555Y-92199484D01*
X129681376Y-92199031D01*
X129543529Y-92238428D01*
X129422280Y-92314930D01*
X129416338Y-92321658D01*
X129416337Y-92321659D01*
X129374829Y-92368659D01*
X129327377Y-92422388D01*
X129266447Y-92552163D01*
X129244391Y-92693823D01*
X117200000Y-92693823D01*
X117200000Y-91690996D01*
X165124500Y-91690996D01*
X165139181Y-91812313D01*
X165196973Y-91965255D01*
X165289579Y-92099997D01*
X165411652Y-92208760D01*
X165418361Y-92212312D01*
X165418362Y-92212313D01*
X165549434Y-92281712D01*
X165549436Y-92281713D01*
X165556145Y-92285265D01*
X165607215Y-92298093D01*
X165707345Y-92323244D01*
X165707349Y-92323244D01*
X165714716Y-92325095D01*
X165722315Y-92325135D01*
X165722317Y-92325135D01*
X165790347Y-92325491D01*
X165878210Y-92325951D01*
X165885590Y-92324179D01*
X165885592Y-92324179D01*
X166029811Y-92289556D01*
X166029815Y-92289555D01*
X166037190Y-92287784D01*
X166182476Y-92212796D01*
X166192895Y-92203707D01*
X166299956Y-92110312D01*
X166299959Y-92110309D01*
X166305681Y-92105317D01*
X166399693Y-91971552D01*
X166459083Y-91819224D01*
X166475500Y-91694527D01*
X166475500Y-91309004D01*
X166460819Y-91187687D01*
X166403027Y-91034745D01*
X166393541Y-91020943D01*
X166314723Y-90906262D01*
X166314722Y-90906261D01*
X166310421Y-90900003D01*
X166188348Y-90791240D01*
X166181638Y-90787687D01*
X166050566Y-90718288D01*
X166050564Y-90718287D01*
X166043855Y-90714735D01*
X165958395Y-90693269D01*
X165892655Y-90676756D01*
X165892651Y-90676756D01*
X165885284Y-90674905D01*
X165877685Y-90674865D01*
X165877683Y-90674865D01*
X165809653Y-90674509D01*
X165721790Y-90674049D01*
X165714410Y-90675821D01*
X165714408Y-90675821D01*
X165570189Y-90710444D01*
X165570185Y-90710445D01*
X165562810Y-90712216D01*
X165417524Y-90787204D01*
X165411802Y-90792196D01*
X165411800Y-90792197D01*
X165300044Y-90889688D01*
X165300041Y-90889691D01*
X165294319Y-90894683D01*
X165200307Y-91028448D01*
X165140917Y-91180776D01*
X165124500Y-91305473D01*
X165124500Y-91690996D01*
X117200000Y-91690996D01*
X117200000Y-90459147D01*
X167520654Y-90459147D01*
X167530894Y-90621916D01*
X167581292Y-90777025D01*
X167585540Y-90783718D01*
X167585540Y-90783719D01*
X167593520Y-90796293D01*
X167668681Y-90914727D01*
X167787569Y-91026371D01*
X167930487Y-91104940D01*
X168014856Y-91126603D01*
X168080777Y-91143529D01*
X168080778Y-91143529D01*
X168088454Y-91145500D01*
X168870608Y-91145500D01*
X168928423Y-91138196D01*
X168983940Y-91131183D01*
X168983943Y-91131182D01*
X168991805Y-91130189D01*
X168999171Y-91127272D01*
X168999173Y-91127272D01*
X169136073Y-91073069D01*
X169143443Y-91070151D01*
X169149856Y-91065491D01*
X169149859Y-91065490D01*
X169268970Y-90978952D01*
X169268974Y-90978948D01*
X169275387Y-90974289D01*
X169379345Y-90848625D01*
X169448786Y-90701056D01*
X169479346Y-90540853D01*
X169469106Y-90378084D01*
X169418708Y-90222975D01*
X169331319Y-90085273D01*
X169212431Y-89973629D01*
X169069513Y-89895060D01*
X168967306Y-89868817D01*
X168919223Y-89856471D01*
X168919222Y-89856471D01*
X168911546Y-89854500D01*
X168129392Y-89854500D01*
X168071577Y-89861804D01*
X168016060Y-89868817D01*
X168016057Y-89868818D01*
X168008195Y-89869811D01*
X168000829Y-89872728D01*
X168000827Y-89872728D01*
X167934775Y-89898880D01*
X167856557Y-89929849D01*
X167850144Y-89934509D01*
X167850141Y-89934510D01*
X167731030Y-90021048D01*
X167731026Y-90021052D01*
X167724613Y-90025711D01*
X167620655Y-90151375D01*
X167551214Y-90298944D01*
X167520654Y-90459147D01*
X117200000Y-90459147D01*
X117200000Y-88893823D01*
X128394391Y-88893823D01*
X128412980Y-89035979D01*
X128470720Y-89167203D01*
X128562970Y-89276948D01*
X128578684Y-89287408D01*
X128674108Y-89350928D01*
X128682313Y-89356390D01*
X128819157Y-89399142D01*
X128828129Y-89399306D01*
X128828132Y-89399307D01*
X128893463Y-89400504D01*
X128962499Y-89401770D01*
X128971533Y-89399307D01*
X129092155Y-89366422D01*
X129092158Y-89366421D01*
X129100817Y-89364060D01*
X129106546Y-89360542D01*
X129155042Y-89350500D01*
X133549176Y-89350500D01*
X133568275Y-89352533D01*
X133573083Y-89352760D01*
X133583261Y-89354951D01*
X133613491Y-89351373D01*
X133618746Y-89351063D01*
X133618735Y-89350928D01*
X133623914Y-89350500D01*
X133629115Y-89350500D01*
X133634243Y-89349646D01*
X133634249Y-89349646D01*
X133646473Y-89347611D01*
X133652349Y-89346774D01*
X133688799Y-89342460D01*
X133688801Y-89342460D01*
X133699138Y-89341236D01*
X133706758Y-89337577D01*
X133715103Y-89336188D01*
X133756584Y-89313806D01*
X133761870Y-89311113D01*
X133804326Y-89290726D01*
X133808274Y-89287408D01*
X133810207Y-89285475D01*
X133811804Y-89284010D01*
X133812294Y-89283746D01*
X133812313Y-89283766D01*
X133812402Y-89283687D01*
X133817794Y-89280778D01*
X133851444Y-89244376D01*
X133854872Y-89240810D01*
X134057280Y-89038401D01*
X134119592Y-89004376D01*
X134148683Y-89001517D01*
X134153520Y-89001606D01*
X134153524Y-89001605D01*
X134162499Y-89001770D01*
X134171163Y-88999408D01*
X134292158Y-88966421D01*
X134292160Y-88966420D01*
X134300817Y-88964060D01*
X134422991Y-88889045D01*
X134519200Y-88782754D01*
X134581710Y-88653733D01*
X134605496Y-88512354D01*
X134605647Y-88500000D01*
X134597473Y-88442924D01*
X134586596Y-88366968D01*
X134586595Y-88366965D01*
X134585323Y-88358082D01*
X134525984Y-88227572D01*
X134507598Y-88206234D01*
X134438260Y-88125763D01*
X134438257Y-88125760D01*
X134432400Y-88118963D01*
X134312095Y-88040985D01*
X134174739Y-87999907D01*
X134165763Y-87999852D01*
X134165762Y-87999852D01*
X134105555Y-87999484D01*
X134031376Y-87999031D01*
X133893529Y-88038428D01*
X133772280Y-88114930D01*
X133677377Y-88222388D01*
X133616447Y-88352163D01*
X133601857Y-88445871D01*
X133597748Y-88472264D01*
X133567504Y-88536497D01*
X133562343Y-88541975D01*
X133491723Y-88612595D01*
X133429411Y-88646621D01*
X133402628Y-88649500D01*
X129402632Y-88649500D01*
X129334511Y-88629498D01*
X129307179Y-88605748D01*
X129232400Y-88518963D01*
X129112095Y-88440985D01*
X128974739Y-88399907D01*
X128965763Y-88399852D01*
X128965762Y-88399852D01*
X128905555Y-88399484D01*
X128831376Y-88399031D01*
X128693529Y-88438428D01*
X128572280Y-88514930D01*
X128477377Y-88622388D01*
X128416447Y-88752163D01*
X128415066Y-88761035D01*
X128396171Y-88882391D01*
X128394391Y-88893823D01*
X117200000Y-88893823D01*
X117200000Y-85969748D01*
X119799500Y-85969748D01*
X119811133Y-86028231D01*
X119855448Y-86094552D01*
X119921769Y-86138867D01*
X119933938Y-86141288D01*
X119933939Y-86141288D01*
X119974184Y-86149293D01*
X119980252Y-86150500D01*
X122419748Y-86150500D01*
X122425816Y-86149293D01*
X122466061Y-86141288D01*
X122466062Y-86141288D01*
X122478231Y-86138867D01*
X122544552Y-86094552D01*
X122588867Y-86028231D01*
X122600500Y-85969748D01*
X122600500Y-84569748D01*
X155049500Y-84569748D01*
X155061133Y-84628231D01*
X155105448Y-84694552D01*
X155171769Y-84738867D01*
X155183938Y-84741288D01*
X155183939Y-84741288D01*
X155224184Y-84749293D01*
X155230252Y-84750500D01*
X158769748Y-84750500D01*
X158775816Y-84749293D01*
X158816061Y-84741288D01*
X158816062Y-84741288D01*
X158828231Y-84738867D01*
X158894552Y-84694552D01*
X158938867Y-84628231D01*
X158950500Y-84569748D01*
X158950500Y-80530252D01*
X158938867Y-80471769D01*
X158894552Y-80405448D01*
X158828231Y-80361133D01*
X158816062Y-80358712D01*
X158816061Y-80358712D01*
X158775816Y-80350707D01*
X158769748Y-80349500D01*
X155230252Y-80349500D01*
X155224184Y-80350707D01*
X155183939Y-80358712D01*
X155183938Y-80358712D01*
X155171769Y-80361133D01*
X155105448Y-80405448D01*
X155061133Y-80471769D01*
X155049500Y-80530252D01*
X155049500Y-84569748D01*
X122600500Y-84569748D01*
X122600500Y-83530252D01*
X122588867Y-83471769D01*
X122544552Y-83405448D01*
X122478231Y-83361133D01*
X122466062Y-83358712D01*
X122466061Y-83358712D01*
X122425816Y-83350707D01*
X122419748Y-83349500D01*
X119980252Y-83349500D01*
X119974184Y-83350707D01*
X119933939Y-83358712D01*
X119933938Y-83358712D01*
X119921769Y-83361133D01*
X119855448Y-83405448D01*
X119811133Y-83471769D01*
X119799500Y-83530252D01*
X119799500Y-85969748D01*
X117200000Y-85969748D01*
X117200000Y-78707342D01*
X158049500Y-78707342D01*
X158052433Y-78754795D01*
X158096327Y-78955271D01*
X158177338Y-79143830D01*
X158292544Y-79313668D01*
X158437786Y-79458657D01*
X158487415Y-79492195D01*
X158601508Y-79569297D01*
X158607825Y-79573566D01*
X158796525Y-79654248D01*
X158884150Y-79673273D01*
X158992314Y-79696758D01*
X158992316Y-79696758D01*
X158997077Y-79697792D01*
X159006244Y-79698337D01*
X159040802Y-79700390D01*
X159040811Y-79700390D01*
X159042658Y-79700500D01*
X160957342Y-79700500D01*
X160959283Y-79700380D01*
X160959284Y-79700380D01*
X160963516Y-79700118D01*
X161004795Y-79697567D01*
X161205271Y-79653673D01*
X161393830Y-79572662D01*
X161563668Y-79457456D01*
X161708657Y-79312214D01*
X161823566Y-79142175D01*
X161861537Y-79053367D01*
X166965906Y-79053367D01*
X166975349Y-79233564D01*
X166977162Y-79240144D01*
X166977162Y-79240147D01*
X167019363Y-79393351D01*
X167023268Y-79407530D01*
X167107424Y-79567148D01*
X167111826Y-79572357D01*
X167111828Y-79572360D01*
X167219487Y-79699757D01*
X167219491Y-79699761D01*
X167223894Y-79704971D01*
X167229318Y-79709118D01*
X167229319Y-79709119D01*
X167361821Y-79810425D01*
X167361825Y-79810428D01*
X167367242Y-79814569D01*
X167373422Y-79817451D01*
X167373424Y-79817452D01*
X167441066Y-79848994D01*
X167530780Y-79890828D01*
X167608984Y-79908309D01*
X167701835Y-79929064D01*
X167701841Y-79929065D01*
X167706879Y-79930191D01*
X167712406Y-79930500D01*
X167845077Y-79930500D01*
X167979389Y-79915909D01*
X168150409Y-79858355D01*
X168305080Y-79765419D01*
X168310042Y-79760727D01*
X168431229Y-79646126D01*
X168431231Y-79646124D01*
X168436187Y-79641437D01*
X168537612Y-79492195D01*
X168550161Y-79460820D01*
X168602089Y-79330992D01*
X168602090Y-79330987D01*
X168604623Y-79324655D01*
X168634094Y-79146633D01*
X168624651Y-78966436D01*
X168597815Y-78869008D01*
X168578545Y-78799052D01*
X168576732Y-78792470D01*
X168492576Y-78632852D01*
X168488174Y-78627643D01*
X168488172Y-78627640D01*
X168380513Y-78500243D01*
X168380509Y-78500239D01*
X168376106Y-78495029D01*
X168370681Y-78490881D01*
X168238179Y-78389575D01*
X168238175Y-78389572D01*
X168232758Y-78385431D01*
X168226578Y-78382549D01*
X168226576Y-78382548D01*
X168146399Y-78345161D01*
X168069220Y-78309172D01*
X167953718Y-78283354D01*
X167898165Y-78270936D01*
X167898159Y-78270935D01*
X167893121Y-78269809D01*
X167887594Y-78269500D01*
X167754923Y-78269500D01*
X167620611Y-78284091D01*
X167449591Y-78341645D01*
X167294920Y-78434581D01*
X167289960Y-78439272D01*
X167289958Y-78439273D01*
X167225485Y-78500243D01*
X167163813Y-78558563D01*
X167062388Y-78707805D01*
X167059855Y-78714139D01*
X167059853Y-78714142D01*
X166997911Y-78869008D01*
X166997910Y-78869013D01*
X166995377Y-78875345D01*
X166965906Y-79053367D01*
X161861537Y-79053367D01*
X161904248Y-78953475D01*
X161923273Y-78865850D01*
X161946758Y-78757686D01*
X161946758Y-78757684D01*
X161947792Y-78752923D01*
X161950500Y-78707342D01*
X161950500Y-76792658D01*
X161947567Y-76745205D01*
X161903673Y-76544729D01*
X161822662Y-76356170D01*
X161738504Y-76232103D01*
X161710820Y-76191291D01*
X161710819Y-76191290D01*
X161707456Y-76186332D01*
X161562214Y-76041343D01*
X161445628Y-75962556D01*
X161397140Y-75929789D01*
X161397138Y-75929788D01*
X161392175Y-75926434D01*
X161203475Y-75845752D01*
X161115850Y-75826727D01*
X161007686Y-75803242D01*
X161007684Y-75803242D01*
X161002923Y-75802208D01*
X160993756Y-75801663D01*
X160959198Y-75799610D01*
X160959189Y-75799610D01*
X160957342Y-75799500D01*
X159042658Y-75799500D01*
X159040717Y-75799620D01*
X159040716Y-75799620D01*
X159036484Y-75799882D01*
X158995205Y-75802433D01*
X158794729Y-75846327D01*
X158606170Y-75927338D01*
X158436332Y-76042544D01*
X158291343Y-76187786D01*
X158270626Y-76218443D01*
X158207963Y-76311170D01*
X158176434Y-76357825D01*
X158095752Y-76546525D01*
X158094480Y-76552384D01*
X158054975Y-76734335D01*
X158052208Y-76747077D01*
X158049500Y-76792658D01*
X158049500Y-78707342D01*
X117200000Y-78707342D01*
X117200000Y-77037312D01*
X117203254Y-77008860D01*
X117205142Y-77000716D01*
X117205143Y-77000000D01*
X117203560Y-76993062D01*
X117202844Y-76986658D01*
X117202333Y-76964407D01*
X117214859Y-76773295D01*
X117217010Y-76756955D01*
X117259722Y-76542227D01*
X117263988Y-76526306D01*
X117334363Y-76318989D01*
X117340670Y-76303763D01*
X117437501Y-76107408D01*
X117445742Y-76093134D01*
X117567377Y-75911095D01*
X117577410Y-75898020D01*
X117624363Y-75844480D01*
X117721761Y-75733418D01*
X117733412Y-75721766D01*
X117898026Y-75577404D01*
X117911099Y-75567374D01*
X118093131Y-75445745D01*
X118107403Y-75437504D01*
X118303766Y-75340668D01*
X118318994Y-75334361D01*
X118526302Y-75263990D01*
X118542221Y-75259724D01*
X118756955Y-75217010D01*
X118773296Y-75214859D01*
X118863134Y-75208970D01*
X118966240Y-75202213D01*
X118974691Y-75201943D01*
X118985811Y-75201963D01*
X118999641Y-75205143D01*
X119013481Y-75202011D01*
X119018371Y-75202020D01*
X119036447Y-75200000D01*
X167962975Y-75200000D01*
X167980181Y-75201953D01*
G37*
G04 #@! TD.AperFunction*
M02*
