G04 #@! TF.GenerationSoftware,KiCad,Pcbnew,(6.0.2)*
G04 #@! TF.CreationDate,2022-03-19T12:24:10+01:00*
G04 #@! TF.ProjectId,prova-buck,70726f76-612d-4627-9563-6b2e6b696361,rev?*
G04 #@! TF.SameCoordinates,Original*
G04 #@! TF.FileFunction,Paste,Top*
G04 #@! TF.FilePolarity,Positive*
%FSLAX46Y46*%
G04 Gerber Fmt 4.6, Leading zero omitted, Abs format (unit mm)*
G04 Created by KiCad (PCBNEW (6.0.2)) date 2022-03-19 12:24:10*
%MOMM*%
%LPD*%
G01*
G04 APERTURE LIST*
G04 Aperture macros list*
%AMRoundRect*
0 Rectangle with rounded corners*
0 $1 Rounding radius*
0 $2 $3 $4 $5 $6 $7 $8 $9 X,Y pos of 4 corners*
0 Add a 4 corners polygon primitive as box body*
4,1,4,$2,$3,$4,$5,$6,$7,$8,$9,$2,$3,0*
0 Add four circle primitives for the rounded corners*
1,1,$1+$1,$2,$3*
1,1,$1+$1,$4,$5*
1,1,$1+$1,$6,$7*
1,1,$1+$1,$8,$9*
0 Add four rect primitives between the rounded corners*
20,1,$1+$1,$2,$3,$4,$5,0*
20,1,$1+$1,$4,$5,$6,$7,0*
20,1,$1+$1,$6,$7,$8,$9,0*
20,1,$1+$1,$8,$9,$2,$3,0*%
%AMFreePoly0*
4,1,6,0.625000,-0.050000,0.625000,-0.150000,-0.425000,-0.150000,-0.425000,0.150000,0.425000,0.150000,0.625000,-0.050000,0.625000,-0.050000,$1*%
G04 Aperture macros list end*
%ADD10RoundRect,0.250000X0.325000X0.650000X-0.325000X0.650000X-0.325000X-0.650000X0.325000X-0.650000X0*%
%ADD11RoundRect,0.225000X0.225000X0.250000X-0.225000X0.250000X-0.225000X-0.250000X0.225000X-0.250000X0*%
%ADD12RoundRect,0.225000X-0.225000X-0.250000X0.225000X-0.250000X0.225000X0.250000X-0.225000X0.250000X0*%
%ADD13RoundRect,0.140000X-0.140000X-0.170000X0.140000X-0.170000X0.140000X0.170000X-0.140000X0.170000X0*%
%ADD14R,2.500000X1.900000*%
%ADD15RoundRect,0.200000X-0.200000X-0.275000X0.200000X-0.275000X0.200000X0.275000X-0.200000X0.275000X0*%
%ADD16RoundRect,0.200000X0.200000X0.275000X-0.200000X0.275000X-0.200000X-0.275000X0.200000X-0.275000X0*%
%ADD17RoundRect,0.250000X-0.325000X-0.650000X0.325000X-0.650000X0.325000X0.650000X-0.325000X0.650000X0*%
%ADD18RoundRect,0.150000X-0.587500X-0.150000X0.587500X-0.150000X0.587500X0.150000X-0.587500X0.150000X0*%
%ADD19FreePoly0,270.000000*%
%ADD20R,0.200000X1.500000*%
%ADD21R,0.200000X0.900000*%
%ADD22R,0.900000X0.200000*%
%ADD23R,2.500000X1.800000*%
%ADD24RoundRect,0.218750X-0.256250X0.218750X-0.256250X-0.218750X0.256250X-0.218750X0.256250X0.218750X0*%
%ADD25O,0.950000X1.250000*%
%ADD26O,1.550000X0.890000*%
%ADD27R,1.350000X0.400000*%
%ADD28R,1.550000X1.200000*%
%ADD29R,1.550000X1.500000*%
%ADD30R,1.500000X2.000000*%
%ADD31R,3.800000X2.000000*%
%ADD32RoundRect,0.200000X-0.275000X0.200000X-0.275000X-0.200000X0.275000X-0.200000X0.275000X0.200000X0*%
%ADD33R,1.000000X1.000000*%
%ADD34RoundRect,0.135000X0.135000X0.185000X-0.135000X0.185000X-0.135000X-0.185000X0.135000X-0.185000X0*%
%ADD35RoundRect,0.250000X0.475000X-0.250000X0.475000X0.250000X-0.475000X0.250000X-0.475000X-0.250000X0*%
%ADD36RoundRect,0.270491X-2.029509X0.554509X-2.029509X-0.554509X2.029509X-0.554509X2.029509X0.554509X0*%
%ADD37RoundRect,0.150000X0.825000X0.150000X-0.825000X0.150000X-0.825000X-0.150000X0.825000X-0.150000X0*%
%ADD38RoundRect,0.225000X0.250000X-0.225000X0.250000X0.225000X-0.250000X0.225000X-0.250000X-0.225000X0*%
G04 APERTURE END LIST*
D10*
X134000000Y-85000000D03*
X131050000Y-85000000D03*
D11*
X141550000Y-97750000D03*
X140000000Y-97750000D03*
D12*
X135975000Y-87500000D03*
X137525000Y-87500000D03*
D11*
X134025000Y-87500000D03*
X132475000Y-87500000D03*
D13*
X134270000Y-95500000D03*
X135230000Y-95500000D03*
D12*
X129000000Y-95750000D03*
X130550000Y-95750000D03*
D11*
X141550000Y-95750000D03*
X140000000Y-95750000D03*
D12*
X139975000Y-90500000D03*
X141525000Y-90500000D03*
D10*
X130575000Y-100500000D03*
X127625000Y-100500000D03*
X130575000Y-103400000D03*
X127625000Y-103400000D03*
D14*
X135250000Y-97950000D03*
X135250000Y-102050000D03*
D15*
X128925000Y-89750000D03*
X130575000Y-89750000D03*
D16*
X130575000Y-91750000D03*
X128925000Y-91750000D03*
X141575000Y-88750000D03*
X139925000Y-88750000D03*
D15*
X139925000Y-92250000D03*
X141575000Y-92250000D03*
D16*
X130575000Y-93750000D03*
X128925000Y-93750000D03*
D17*
X136025000Y-85000000D03*
X138975000Y-85000000D03*
D16*
X141575000Y-94000000D03*
X139925000Y-94000000D03*
D18*
X120262500Y-79300000D03*
X120262500Y-81200000D03*
X122137500Y-80250000D03*
D16*
X146825000Y-82750000D03*
X145175000Y-82750000D03*
D19*
X136150000Y-90125000D03*
D20*
X135550000Y-90450000D03*
X134950000Y-90450000D03*
D21*
X134350000Y-90150000D03*
D22*
X133400000Y-90600000D03*
X133400000Y-91200000D03*
X133400000Y-91800000D03*
X133400000Y-92400000D03*
D21*
X134350000Y-92850000D03*
X134950000Y-92850000D03*
X135550000Y-92850000D03*
X136150000Y-92850000D03*
D22*
X137100000Y-92400000D03*
X137100000Y-91800000D03*
X137100000Y-91200000D03*
X137100000Y-90600000D03*
D15*
X120350000Y-76550000D03*
X122000000Y-76550000D03*
D23*
X146200000Y-78750000D03*
X150200000Y-78750000D03*
D24*
X155400000Y-92212500D03*
X155400000Y-93787500D03*
D25*
X165800000Y-96500000D03*
X165800000Y-91500000D03*
D26*
X168500000Y-90500000D03*
X168500000Y-97500000D03*
D27*
X165800000Y-95300000D03*
X165800000Y-94650000D03*
X165800000Y-94000000D03*
X165800000Y-93350000D03*
X165800000Y-92700000D03*
D28*
X168500000Y-96900000D03*
X168500000Y-91100000D03*
D29*
X168500000Y-95000000D03*
X168500000Y-93000000D03*
D30*
X152800000Y-98450000D03*
X150500000Y-98450000D03*
D31*
X150500000Y-104750000D03*
D30*
X148200000Y-98450000D03*
D16*
X151825000Y-82750000D03*
X150175000Y-82750000D03*
D32*
X152500000Y-92175000D03*
X152500000Y-93825000D03*
D33*
X161900000Y-99950000D03*
X161900000Y-97450000D03*
D34*
X137510000Y-95500000D03*
X136490000Y-95500000D03*
D18*
X160562500Y-92800000D03*
X160562500Y-94700000D03*
X162437500Y-93750000D03*
D33*
X125500000Y-79550000D03*
X125500000Y-77050000D03*
D35*
X156200000Y-101000000D03*
X156200000Y-99100000D03*
D36*
X135000000Y-76975000D03*
X135000000Y-82025000D03*
D37*
X152475000Y-89655000D03*
X152475000Y-88385000D03*
X152475000Y-87115000D03*
X152475000Y-85845000D03*
X147525000Y-85845000D03*
X147525000Y-87115000D03*
X147525000Y-88385000D03*
X147525000Y-89655000D03*
D38*
X148200000Y-95825000D03*
X148200000Y-94275000D03*
M02*
