%FSLAX45Y45*%
G04 Gerber Fmt 4.5, Leading zero omitted, Abs format (unit mm)*
G04 Created by KiCad (PCBNEW (6.0.2)) date 2022-03-19 12:24:19*
%MOMM*%
%LPD*%
G01*
G04 APERTURE LIST*
%TA.AperFunction,Profile*%
%ADD10C,0.050000*%
%TD*%
%ADD11C,0.200000*%
%ADD12C,0.115200*%
G04 APERTURE END LIST*
D10*
X11700000Y-11300000D02*
G75*
G03*
X11900000Y-11500000I200000J0D01*
G01*
X11900000Y-11500000D02*
X16800000Y-11500000D01*
X16800000Y-11500000D02*
G75*
G03*
X17000000Y-11300000I0J200000D01*
G01*
X16800000Y-7500000D02*
X11900000Y-7500000D01*
X17000000Y-7700000D02*
G75*
G03*
X16800000Y-7500000I-200000J0D01*
G01*
X17000000Y-11300000D02*
X17000000Y-7700000D01*
X11700000Y-11300000D02*
X11700000Y-7700000D01*
X11900000Y-7500000D02*
G75*
G03*
X11700000Y-7700000I0J-200000D01*
G01*
D11*
D12*
X12402400Y-11112400D02*
X12517600Y-11227600D01*
X12517600Y-11112400D02*
X12402400Y-11227600D01*
X16167400Y-11118400D02*
X16282600Y-11233600D01*
X16282600Y-11118400D02*
X16167400Y-11233600D01*
X16722400Y-7852400D02*
X16837600Y-7967600D01*
X16837600Y-7852400D02*
X16722400Y-7967600D01*
D11*
X11955119Y-11812976D02*
X11955119Y-11612976D01*
X12002738Y-11612976D01*
X12031309Y-11622500D01*
X12050357Y-11641548D01*
X12059881Y-11660595D01*
X12069405Y-11698690D01*
X12069405Y-11727262D01*
X12059881Y-11765357D01*
X12050357Y-11784405D01*
X12031309Y-11803452D01*
X12002738Y-11812976D01*
X11955119Y-11812976D01*
X12155119Y-11812976D02*
X12155119Y-11679643D01*
X12155119Y-11717738D02*
X12164643Y-11698690D01*
X12174167Y-11689167D01*
X12193214Y-11679643D01*
X12212262Y-11679643D01*
X12278928Y-11812976D02*
X12278928Y-11679643D01*
X12278928Y-11612976D02*
X12269405Y-11622500D01*
X12278928Y-11632024D01*
X12288452Y-11622500D01*
X12278928Y-11612976D01*
X12278928Y-11632024D01*
X12402738Y-11812976D02*
X12383690Y-11803452D01*
X12374167Y-11784405D01*
X12374167Y-11612976D01*
X12507500Y-11812976D02*
X12488452Y-11803452D01*
X12478928Y-11784405D01*
X12478928Y-11612976D01*
X12736071Y-11812976D02*
X12736071Y-11612976D01*
X12802738Y-11755833D01*
X12869405Y-11612976D01*
X12869405Y-11812976D01*
X13050357Y-11812976D02*
X13050357Y-11708214D01*
X13040833Y-11689167D01*
X13021786Y-11679643D01*
X12983690Y-11679643D01*
X12964643Y-11689167D01*
X13050357Y-11803452D02*
X13031309Y-11812976D01*
X12983690Y-11812976D01*
X12964643Y-11803452D01*
X12955119Y-11784405D01*
X12955119Y-11765357D01*
X12964643Y-11746309D01*
X12983690Y-11736786D01*
X13031309Y-11736786D01*
X13050357Y-11727262D01*
X13145595Y-11679643D02*
X13145595Y-11879643D01*
X13145595Y-11689167D02*
X13164643Y-11679643D01*
X13202738Y-11679643D01*
X13221786Y-11689167D01*
X13231309Y-11698690D01*
X13240833Y-11717738D01*
X13240833Y-11774881D01*
X13231309Y-11793928D01*
X13221786Y-11803452D01*
X13202738Y-11812976D01*
X13164643Y-11812976D01*
X13145595Y-11803452D01*
X13326548Y-11793928D02*
X13336071Y-11803452D01*
X13326548Y-11812976D01*
X13317024Y-11803452D01*
X13326548Y-11793928D01*
X13326548Y-11812976D01*
X13326548Y-11689167D02*
X13336071Y-11698690D01*
X13326548Y-11708214D01*
X13317024Y-11698690D01*
X13326548Y-11689167D01*
X13326548Y-11708214D01*
D12*
X11582300Y-12084900D02*
X11697500Y-12200100D01*
X11697500Y-12084900D02*
X11582300Y-12200100D01*
D11*
X12059881Y-12232976D02*
X11945595Y-12232976D01*
X12002738Y-12232976D02*
X12002738Y-12032976D01*
X11983690Y-12061548D01*
X11964643Y-12080595D01*
X11945595Y-12090119D01*
X12145595Y-12213928D02*
X12155119Y-12223452D01*
X12145595Y-12232976D01*
X12136071Y-12223452D01*
X12145595Y-12213928D01*
X12145595Y-12232976D01*
X12345595Y-12232976D02*
X12231309Y-12232976D01*
X12288452Y-12232976D02*
X12288452Y-12032976D01*
X12269405Y-12061548D01*
X12250357Y-12080595D01*
X12231309Y-12090119D01*
X12526548Y-12032976D02*
X12431309Y-12032976D01*
X12421786Y-12128214D01*
X12431309Y-12118690D01*
X12450357Y-12109167D01*
X12497976Y-12109167D01*
X12517024Y-12118690D01*
X12526548Y-12128214D01*
X12536071Y-12147262D01*
X12536071Y-12194881D01*
X12526548Y-12213928D01*
X12517024Y-12223452D01*
X12497976Y-12232976D01*
X12450357Y-12232976D01*
X12431309Y-12223452D01*
X12421786Y-12213928D01*
X12612262Y-12052024D02*
X12621786Y-12042500D01*
X12640833Y-12032976D01*
X12688452Y-12032976D01*
X12707500Y-12042500D01*
X12717024Y-12052024D01*
X12726548Y-12071071D01*
X12726548Y-12090119D01*
X12717024Y-12118690D01*
X12602738Y-12232976D01*
X12726548Y-12232976D01*
X12812262Y-12232976D02*
X12812262Y-12099643D01*
X12812262Y-12118690D02*
X12821786Y-12109167D01*
X12840833Y-12099643D01*
X12869405Y-12099643D01*
X12888452Y-12109167D01*
X12897976Y-12128214D01*
X12897976Y-12232976D01*
X12897976Y-12128214D02*
X12907500Y-12109167D01*
X12926548Y-12099643D01*
X12955119Y-12099643D01*
X12974167Y-12109167D01*
X12983690Y-12128214D01*
X12983690Y-12232976D01*
X13078928Y-12232976D02*
X13078928Y-12099643D01*
X13078928Y-12118690D02*
X13088452Y-12109167D01*
X13107500Y-12099643D01*
X13136071Y-12099643D01*
X13155119Y-12109167D01*
X13164643Y-12128214D01*
X13164643Y-12232976D01*
X13164643Y-12128214D02*
X13174167Y-12109167D01*
X13193214Y-12099643D01*
X13221786Y-12099643D01*
X13240833Y-12109167D01*
X13250357Y-12128214D01*
X13250357Y-12232976D01*
X13640833Y-12023452D02*
X13469405Y-12280595D01*
X13897976Y-12032976D02*
X13917024Y-12032976D01*
X13936071Y-12042500D01*
X13945595Y-12052024D01*
X13955119Y-12071071D01*
X13964643Y-12109167D01*
X13964643Y-12156786D01*
X13955119Y-12194881D01*
X13945595Y-12213928D01*
X13936071Y-12223452D01*
X13917024Y-12232976D01*
X13897976Y-12232976D01*
X13878928Y-12223452D01*
X13869405Y-12213928D01*
X13859881Y-12194881D01*
X13850357Y-12156786D01*
X13850357Y-12109167D01*
X13859881Y-12071071D01*
X13869405Y-12052024D01*
X13878928Y-12042500D01*
X13897976Y-12032976D01*
X14050357Y-12213928D02*
X14059881Y-12223452D01*
X14050357Y-12232976D01*
X14040833Y-12223452D01*
X14050357Y-12213928D01*
X14050357Y-12232976D01*
X14183690Y-12032976D02*
X14202738Y-12032976D01*
X14221786Y-12042500D01*
X14231309Y-12052024D01*
X14240833Y-12071071D01*
X14250357Y-12109167D01*
X14250357Y-12156786D01*
X14240833Y-12194881D01*
X14231309Y-12213928D01*
X14221786Y-12223452D01*
X14202738Y-12232976D01*
X14183690Y-12232976D01*
X14164643Y-12223452D01*
X14155119Y-12213928D01*
X14145595Y-12194881D01*
X14136071Y-12156786D01*
X14136071Y-12109167D01*
X14145595Y-12071071D01*
X14155119Y-12052024D01*
X14164643Y-12042500D01*
X14183690Y-12032976D01*
X14421786Y-12099643D02*
X14421786Y-12232976D01*
X14374167Y-12023452D02*
X14326548Y-12166309D01*
X14450357Y-12166309D01*
X14621786Y-12032976D02*
X14526548Y-12032976D01*
X14517024Y-12128214D01*
X14526548Y-12118690D01*
X14545595Y-12109167D01*
X14593214Y-12109167D01*
X14612262Y-12118690D01*
X14621786Y-12128214D01*
X14631309Y-12147262D01*
X14631309Y-12194881D01*
X14621786Y-12213928D01*
X14612262Y-12223452D01*
X14593214Y-12232976D01*
X14545595Y-12232976D01*
X14526548Y-12223452D01*
X14517024Y-12213928D01*
X14802738Y-12099643D02*
X14802738Y-12232976D01*
X14755119Y-12023452D02*
X14707500Y-12166309D01*
X14831309Y-12166309D01*
X14897976Y-12032976D02*
X14897976Y-12071071D01*
X14974167Y-12032976D02*
X14974167Y-12071071D01*
X15269405Y-12309167D02*
X15259881Y-12299643D01*
X15240833Y-12271071D01*
X15231309Y-12252024D01*
X15221786Y-12223452D01*
X15212262Y-12175833D01*
X15212262Y-12137738D01*
X15221786Y-12090119D01*
X15231309Y-12061548D01*
X15240833Y-12042500D01*
X15259881Y-12013928D01*
X15269405Y-12004405D01*
X15326548Y-12032976D02*
X15450357Y-12032976D01*
X15383690Y-12109167D01*
X15412262Y-12109167D01*
X15431309Y-12118690D01*
X15440833Y-12128214D01*
X15450357Y-12147262D01*
X15450357Y-12194881D01*
X15440833Y-12213928D01*
X15431309Y-12223452D01*
X15412262Y-12232976D01*
X15355119Y-12232976D01*
X15336071Y-12223452D01*
X15326548Y-12213928D01*
X15688452Y-12232976D02*
X15688452Y-12032976D01*
X15774167Y-12232976D02*
X15774167Y-12128214D01*
X15764643Y-12109167D01*
X15745595Y-12099643D01*
X15717024Y-12099643D01*
X15697976Y-12109167D01*
X15688452Y-12118690D01*
X15897976Y-12232976D02*
X15878928Y-12223452D01*
X15869405Y-12213928D01*
X15859881Y-12194881D01*
X15859881Y-12137738D01*
X15869405Y-12118690D01*
X15878928Y-12109167D01*
X15897976Y-12099643D01*
X15926548Y-12099643D01*
X15945595Y-12109167D01*
X15955119Y-12118690D01*
X15964643Y-12137738D01*
X15964643Y-12194881D01*
X15955119Y-12213928D01*
X15945595Y-12223452D01*
X15926548Y-12232976D01*
X15897976Y-12232976D01*
X16078928Y-12232976D02*
X16059881Y-12223452D01*
X16050357Y-12204405D01*
X16050357Y-12032976D01*
X16231309Y-12223452D02*
X16212262Y-12232976D01*
X16174167Y-12232976D01*
X16155119Y-12223452D01*
X16145595Y-12204405D01*
X16145595Y-12128214D01*
X16155119Y-12109167D01*
X16174167Y-12099643D01*
X16212262Y-12099643D01*
X16231309Y-12109167D01*
X16240833Y-12128214D01*
X16240833Y-12147262D01*
X16145595Y-12166309D01*
X16317024Y-12223452D02*
X16336071Y-12232976D01*
X16374167Y-12232976D01*
X16393214Y-12223452D01*
X16402738Y-12204405D01*
X16402738Y-12194881D01*
X16393214Y-12175833D01*
X16374167Y-12166309D01*
X16345595Y-12166309D01*
X16326548Y-12156786D01*
X16317024Y-12137738D01*
X16317024Y-12128214D01*
X16326548Y-12109167D01*
X16345595Y-12099643D01*
X16374167Y-12099643D01*
X16393214Y-12109167D01*
X16469405Y-12309167D02*
X16478928Y-12299643D01*
X16497976Y-12271071D01*
X16507500Y-12252024D01*
X16517024Y-12223452D01*
X16526548Y-12175833D01*
X16526548Y-12137738D01*
X16517024Y-12090119D01*
X16507500Y-12061548D01*
X16497976Y-12042500D01*
X16478928Y-12013928D01*
X16469405Y-12004405D01*
X16831310Y-12309167D02*
X16821786Y-12299643D01*
X16802738Y-12271071D01*
X16793214Y-12252024D01*
X16783690Y-12223452D01*
X16774167Y-12175833D01*
X16774167Y-12137738D01*
X16783690Y-12090119D01*
X16793214Y-12061548D01*
X16802738Y-12042500D01*
X16821786Y-12013928D01*
X16831310Y-12004405D01*
X16907500Y-12099643D02*
X16907500Y-12232976D01*
X16907500Y-12118690D02*
X16917024Y-12109167D01*
X16936071Y-12099643D01*
X16964643Y-12099643D01*
X16983690Y-12109167D01*
X16993214Y-12128214D01*
X16993214Y-12232976D01*
X17117024Y-12232976D02*
X17097976Y-12223452D01*
X17088452Y-12213928D01*
X17078929Y-12194881D01*
X17078929Y-12137738D01*
X17088452Y-12118690D01*
X17097976Y-12109167D01*
X17117024Y-12099643D01*
X17145595Y-12099643D01*
X17164643Y-12109167D01*
X17174167Y-12118690D01*
X17183690Y-12137738D01*
X17183690Y-12194881D01*
X17174167Y-12213928D01*
X17164643Y-12223452D01*
X17145595Y-12232976D01*
X17117024Y-12232976D01*
X17240833Y-12099643D02*
X17317024Y-12099643D01*
X17269405Y-12032976D02*
X17269405Y-12204405D01*
X17278929Y-12223452D01*
X17297976Y-12232976D01*
X17317024Y-12232976D01*
X17536071Y-12099643D02*
X17536071Y-12299643D01*
X17536071Y-12109167D02*
X17555119Y-12099643D01*
X17593214Y-12099643D01*
X17612262Y-12109167D01*
X17621786Y-12118690D01*
X17631310Y-12137738D01*
X17631310Y-12194881D01*
X17621786Y-12213928D01*
X17612262Y-12223452D01*
X17593214Y-12232976D01*
X17555119Y-12232976D01*
X17536071Y-12223452D01*
X17745595Y-12232976D02*
X17726548Y-12223452D01*
X17717024Y-12204405D01*
X17717024Y-12032976D01*
X17907500Y-12232976D02*
X17907500Y-12128214D01*
X17897976Y-12109167D01*
X17878929Y-12099643D01*
X17840833Y-12099643D01*
X17821786Y-12109167D01*
X17907500Y-12223452D02*
X17888452Y-12232976D01*
X17840833Y-12232976D01*
X17821786Y-12223452D01*
X17812262Y-12204405D01*
X17812262Y-12185357D01*
X17821786Y-12166309D01*
X17840833Y-12156786D01*
X17888452Y-12156786D01*
X17907500Y-12147262D01*
X17974167Y-12099643D02*
X18050357Y-12099643D01*
X18002738Y-12032976D02*
X18002738Y-12204405D01*
X18012262Y-12223452D01*
X18031310Y-12232976D01*
X18050357Y-12232976D01*
X18193214Y-12223452D02*
X18174167Y-12232976D01*
X18136071Y-12232976D01*
X18117024Y-12223452D01*
X18107500Y-12204405D01*
X18107500Y-12128214D01*
X18117024Y-12109167D01*
X18136071Y-12099643D01*
X18174167Y-12099643D01*
X18193214Y-12109167D01*
X18202738Y-12128214D01*
X18202738Y-12147262D01*
X18107500Y-12166309D01*
X18374167Y-12232976D02*
X18374167Y-12032976D01*
X18374167Y-12223452D02*
X18355119Y-12232976D01*
X18317024Y-12232976D01*
X18297976Y-12223452D01*
X18288452Y-12213928D01*
X18278929Y-12194881D01*
X18278929Y-12137738D01*
X18288452Y-12118690D01*
X18297976Y-12109167D01*
X18317024Y-12099643D01*
X18355119Y-12099643D01*
X18374167Y-12109167D01*
X18450357Y-12309167D02*
X18459881Y-12299643D01*
X18478929Y-12271071D01*
X18488452Y-12252024D01*
X18497976Y-12223452D01*
X18507500Y-12175833D01*
X18507500Y-12137738D01*
X18497976Y-12090119D01*
X18488452Y-12061548D01*
X18478929Y-12042500D01*
X18459881Y-12013928D01*
X18450357Y-12004405D01*
M02*
