G04 #@! TF.GenerationSoftware,KiCad,Pcbnew,(6.0.2)*
G04 #@! TF.CreationDate,2022-03-19T12:24:11+01:00*
G04 #@! TF.ProjectId,prova-buck,70726f76-612d-4627-9563-6b2e6b696361,rev?*
G04 #@! TF.SameCoordinates,Original*
G04 #@! TF.FileFunction,Soldermask,Bot*
G04 #@! TF.FilePolarity,Negative*
%FSLAX46Y46*%
G04 Gerber Fmt 4.6, Leading zero omitted, Abs format (unit mm)*
G04 Created by KiCad (PCBNEW (6.0.2)) date 2022-03-19 12:24:11*
%MOMM*%
%LPD*%
G01*
G04 APERTURE LIST*
G04 Aperture macros list*
%AMRoundRect*
0 Rectangle with rounded corners*
0 $1 Rounding radius*
0 $2 $3 $4 $5 $6 $7 $8 $9 X,Y pos of 4 corners*
0 Add a 4 corners polygon primitive as box body*
4,1,4,$2,$3,$4,$5,$6,$7,$8,$9,$2,$3,0*
0 Add four circle primitives for the rounded corners*
1,1,$1+$1,$2,$3*
1,1,$1+$1,$4,$5*
1,1,$1+$1,$6,$7*
1,1,$1+$1,$8,$9*
0 Add four rect primitives between the rounded corners*
20,1,$1+$1,$2,$3,$4,$5,0*
20,1,$1+$1,$4,$5,$6,$7,0*
20,1,$1+$1,$6,$7,$8,$9,0*
20,1,$1+$1,$8,$9,$2,$3,0*%
G04 Aperture macros list end*
%ADD10C,0.650000*%
%ADD11RoundRect,0.050000X-1.200000X1.200000X-1.200000X-1.200000X1.200000X-1.200000X1.200000X1.200000X0*%
%ADD12C,2.500000*%
%ADD13C,0.296000*%
%ADD14RoundRect,0.050000X-0.850000X-0.850000X0.850000X-0.850000X0.850000X0.850000X-0.850000X0.850000X0*%
%ADD15O,1.800000X1.800000*%
%ADD16RoundRect,0.050000X1.750000X2.000000X-1.750000X2.000000X-1.750000X-2.000000X1.750000X-2.000000X0*%
%ADD17RoundRect,0.800000X0.750000X1.000000X-0.750000X1.000000X-0.750000X-1.000000X0.750000X-1.000000X0*%
%ADD18RoundRect,0.925000X0.875000X0.875000X-0.875000X0.875000X-0.875000X-0.875000X0.875000X-0.875000X0*%
%ADD19O,1.050000X1.350000*%
%ADD20O,1.650000X0.990000*%
%ADD21RoundRect,1.050000X1.000000X2.000000X-1.000000X2.000000X-1.000000X-2.000000X1.000000X-2.000000X0*%
%ADD22RoundRect,1.050000X-1.000000X-2.000000X1.000000X-2.000000X1.000000X2.000000X-1.000000X2.000000X0*%
%ADD23RoundRect,0.050000X0.850000X0.850000X-0.850000X0.850000X-0.850000X-0.850000X0.850000X-0.850000X0*%
G04 APERTURE END LIST*
D10*
X162575000Y-111760000D02*
G75*
G03*
X162575000Y-111760000I-325000J0D01*
G01*
X124925000Y-111700000D02*
G75*
G03*
X124925000Y-111700000I-325000J0D01*
G01*
X168125000Y-79100000D02*
G75*
G03*
X168125000Y-79100000I-325000J0D01*
G01*
D11*
X121200000Y-84750000D03*
D12*
X121200000Y-88250000D03*
D13*
X162250000Y-111760000D03*
D14*
X120000000Y-94000000D03*
D15*
X120000000Y-96540000D03*
X120000000Y-99080000D03*
X120000000Y-101620000D03*
D16*
X157000000Y-82550000D03*
D17*
X163000000Y-82550000D03*
D18*
X160000000Y-77750000D03*
D19*
X165800000Y-91500000D03*
X165800000Y-96500000D03*
D20*
X168500000Y-97500000D03*
X168500000Y-90500000D03*
D14*
X159500000Y-104000000D03*
D15*
X159500000Y-106540000D03*
X159500000Y-109080000D03*
X159500000Y-111620000D03*
D13*
X124600000Y-111700000D03*
D21*
X146500000Y-110000000D03*
D22*
X140500000Y-110000000D03*
D21*
X134500000Y-110000000D03*
D22*
X128500000Y-110000000D03*
D13*
X167800000Y-79100000D03*
D23*
X167500000Y-106580000D03*
D15*
X164960000Y-106580000D03*
X167500000Y-109120000D03*
X164960000Y-109120000D03*
X167500000Y-111660000D03*
X164960000Y-111660000D03*
D23*
X121960000Y-106580000D03*
D15*
X119420000Y-106580000D03*
X121960000Y-109120000D03*
X119420000Y-109120000D03*
X121960000Y-111660000D03*
X119420000Y-111660000D03*
M02*
