M48
; DRILL file {KiCad (6.0.2)} date Sat Mar 19 12:24:17 2022
; FORMAT={-:-/ absolute / metric / decimal}
; #@! TF.CreationDate,2022-03-19T12:24:17+01:00
; #@! TF.GenerationSoftware,Kicad,Pcbnew,(6.0.2)
; #@! TF.FileFunction,Plated,1,2,PTH
FMAT,2
METRIC
; #@! TA.AperFunction,Plated,PTH,ViaDrill
T1C0.300
; #@! TA.AperFunction,Plated,PTH,ViaDrill
T2C0.400
; #@! TA.AperFunction,Plated,PTH,ComponentDrill
T3C0.500
; #@! TA.AperFunction,Plated,PTH,ComponentDrill
T4C0.550
; #@! TA.AperFunction,Plated,PTH,ComponentDrill
T5C1.000
; #@! TA.AperFunction,Plated,PTH,ComponentDrill
T6C1.200
%
G90
G05
T1
X128.9Y-88.9
X129.75Y-92.7
X131.85Y-91.1
X134.1Y-88.5
X137.74Y-94.1
T2
X119.5Y-76.55
X126.6Y-99.8
X126.6Y-100.9
X126.6Y-102.8
X126.6Y-103.9
X127.5Y-83.25
X127.5Y-84.5
X127.5Y-85.75
X127.5Y-87.0
X128.1Y-95.7
X128.75Y-83.25
X128.75Y-84.5
X128.75Y-85.75
X128.75Y-87.0
X130.0Y-84.5
X130.0Y-85.75
X130.0Y-87.0
X131.1Y-83.65
X131.7Y-86.9
X131.7Y-88.1
X138.1Y-88.3
X138.1Y-93.2
X138.3Y-86.85
X139.0Y-83.65
X140.0Y-84.5
X140.0Y-85.75
X140.0Y-87.0
X141.25Y-83.25
X141.25Y-84.5
X141.25Y-85.75
X141.25Y-87.0
X142.4Y-88.75
X142.5Y-83.25
X142.5Y-84.5
X142.5Y-85.75
X142.5Y-87.0
X142.5Y-94.0
X142.5Y-95.75
X142.5Y-97.75
X147.75Y-93.4
X148.65Y-93.4
X151.5Y-93.9
X152.7Y-82.7
X153.9Y-85.8
X154.5Y-97.65
X154.5Y-99.0
X155.7Y-98.15
X156.7Y-98.15
X162.9Y-99.4
X162.9Y-100.5
X164.2Y-92.2
X164.2Y-93.2
T5
X119.42Y-106.58
X119.42Y-109.12
X119.42Y-111.66
X120.0Y-94.0
X120.0Y-96.54
X120.0Y-99.08
X120.0Y-101.62
X121.96Y-106.58
X121.96Y-109.12
X121.96Y-111.66
X159.5Y-104.0
X159.5Y-106.54
X159.5Y-109.08
X159.5Y-111.62
X164.96Y-106.58
X164.96Y-109.12
X164.96Y-111.66
X167.5Y-106.58
X167.5Y-109.12
X167.5Y-111.66
T6
X121.2Y-84.75
X121.2Y-88.25
X129.0Y-110.0
X134.0Y-110.0
X141.0Y-110.0
X146.0Y-110.0
T3
X168.175Y-90.5G85X168.825Y-90.5
G05
X168.175Y-97.5G85X168.825Y-97.5
G05
T4
X165.8Y-91.65G85X165.8Y-91.35
G05
X165.8Y-96.65G85X165.8Y-96.35
G05
T5
X157.0Y-83.8G85X157.0Y-81.3
G05
X161.0Y-77.75G85X159.0Y-77.75
G05
X163.0Y-83.55G85X163.0Y-81.55
G05
T0
M30
