G04 #@! TF.GenerationSoftware,KiCad,Pcbnew,(6.0.2)*
G04 #@! TF.CreationDate,2022-03-19T12:24:10+01:00*
G04 #@! TF.ProjectId,prova-buck,70726f76-612d-4627-9563-6b2e6b696361,rev?*
G04 #@! TF.SameCoordinates,Original*
G04 #@! TF.FileFunction,Legend,Bot*
G04 #@! TF.FilePolarity,Positive*
%FSLAX46Y46*%
G04 Gerber Fmt 4.6, Leading zero omitted, Abs format (unit mm)*
G04 Created by KiCad (PCBNEW (6.0.2)) date 2022-03-19 12:24:10*
%MOMM*%
%LPD*%
G01*
G04 APERTURE LIST*
G04 Aperture macros list*
%AMRoundRect*
0 Rectangle with rounded corners*
0 $1 Rounding radius*
0 $2 $3 $4 $5 $6 $7 $8 $9 X,Y pos of 4 corners*
0 Add a 4 corners polygon primitive as box body*
4,1,4,$2,$3,$4,$5,$6,$7,$8,$9,$2,$3,0*
0 Add four circle primitives for the rounded corners*
1,1,$1+$1,$2,$3*
1,1,$1+$1,$4,$5*
1,1,$1+$1,$6,$7*
1,1,$1+$1,$8,$9*
0 Add four rect primitives between the rounded corners*
20,1,$1+$1,$2,$3,$4,$5,0*
20,1,$1+$1,$4,$5,$6,$7,0*
20,1,$1+$1,$6,$7,$8,$9,0*
20,1,$1+$1,$8,$9,$2,$3,0*%
G04 Aperture macros list end*
%ADD10C,0.120000*%
%ADD11C,0.650000*%
%ADD12RoundRect,0.050000X-1.200000X1.200000X-1.200000X-1.200000X1.200000X-1.200000X1.200000X1.200000X0*%
%ADD13C,2.500000*%
%ADD14C,0.296000*%
%ADD15RoundRect,0.050000X-0.850000X-0.850000X0.850000X-0.850000X0.850000X0.850000X-0.850000X0.850000X0*%
%ADD16O,1.800000X1.800000*%
%ADD17RoundRect,0.050000X1.750000X2.000000X-1.750000X2.000000X-1.750000X-2.000000X1.750000X-2.000000X0*%
%ADD18RoundRect,0.800000X0.750000X1.000000X-0.750000X1.000000X-0.750000X-1.000000X0.750000X-1.000000X0*%
%ADD19RoundRect,0.925000X0.875000X0.875000X-0.875000X0.875000X-0.875000X-0.875000X0.875000X-0.875000X0*%
%ADD20O,1.050000X1.350000*%
%ADD21O,1.650000X0.990000*%
%ADD22RoundRect,1.050000X1.000000X2.000000X-1.000000X2.000000X-1.000000X-2.000000X1.000000X-2.000000X0*%
%ADD23RoundRect,1.050000X-1.000000X-2.000000X1.000000X-2.000000X1.000000X2.000000X-1.000000X2.000000X0*%
%ADD24RoundRect,0.050000X0.850000X0.850000X-0.850000X0.850000X-0.850000X-0.850000X0.850000X-0.850000X0*%
G04 APERTURE END LIST*
D10*
X166230000Y-105250000D02*
X163630000Y-105250000D01*
X168830000Y-106580000D02*
X168830000Y-105250000D01*
X168830000Y-107850000D02*
X166230000Y-107850000D01*
X168830000Y-112990000D02*
X163630000Y-112990000D01*
X168830000Y-107850000D02*
X168830000Y-112990000D01*
X163630000Y-105250000D02*
X163630000Y-112990000D01*
X168830000Y-105250000D02*
X167500000Y-105250000D01*
X166230000Y-107850000D02*
X166230000Y-105250000D01*
X123290000Y-105250000D02*
X121960000Y-105250000D01*
X123290000Y-112990000D02*
X118090000Y-112990000D01*
X120690000Y-105250000D02*
X118090000Y-105250000D01*
X123290000Y-106580000D02*
X123290000Y-105250000D01*
X120690000Y-107850000D02*
X120690000Y-105250000D01*
X123290000Y-107850000D02*
X123290000Y-112990000D01*
X118090000Y-105250000D02*
X118090000Y-112990000D01*
X123290000Y-107850000D02*
X120690000Y-107850000D01*
G36*
X140665917Y-80934465D02*
G01*
X140991658Y-80941053D01*
X140997838Y-81932533D01*
X140998644Y-82080092D01*
X140999288Y-82320992D01*
X140998764Y-82518776D01*
X140997014Y-82676187D01*
X140993982Y-82795973D01*
X140989610Y-82880878D01*
X140983842Y-82933647D01*
X140976620Y-82957026D01*
X140967148Y-82965084D01*
X140933850Y-82976548D01*
X140874814Y-82983042D01*
X140782876Y-82985145D01*
X140650869Y-82983440D01*
X140352515Y-82976840D01*
X140340175Y-80927878D01*
X140665917Y-80934465D01*
G37*
G36*
X147158019Y-78930058D02*
G01*
X147296888Y-78931151D01*
X147404145Y-78934655D01*
X147490846Y-78941666D01*
X147568046Y-78953284D01*
X147646800Y-78970608D01*
X147738163Y-78994735D01*
X147986323Y-79075492D01*
X148308951Y-79222086D01*
X148606679Y-79408372D01*
X148877390Y-79633162D01*
X148978502Y-79734511D01*
X149201744Y-80004726D01*
X149386484Y-80301697D01*
X149531462Y-80623208D01*
X149635422Y-80967045D01*
X149649179Y-81032281D01*
X149663368Y-81127945D01*
X149672195Y-81237913D01*
X149676447Y-81373167D01*
X149676915Y-81544688D01*
X149675697Y-81666693D01*
X149672208Y-81794733D01*
X149665436Y-81896681D01*
X149654140Y-81984612D01*
X149637081Y-82070602D01*
X149613016Y-82166724D01*
X149570308Y-82307743D01*
X149472977Y-82557299D01*
X149352721Y-82801596D01*
X149219180Y-83019758D01*
X149201802Y-83044458D01*
X149026639Y-83258280D01*
X148817324Y-83462456D01*
X148585129Y-83647882D01*
X148341324Y-83805454D01*
X148097182Y-83926066D01*
X147989346Y-83968671D01*
X147907002Y-83994986D01*
X147849138Y-84002762D01*
X147806445Y-83993173D01*
X147769617Y-83967393D01*
X147752861Y-83947886D01*
X147739305Y-83914763D01*
X147731229Y-83861946D01*
X147727336Y-83780227D01*
X147726327Y-83660399D01*
X147726327Y-83392582D01*
X147910731Y-83406802D01*
X148098269Y-83406176D01*
X148268570Y-83369601D01*
X148412490Y-83294841D01*
X148532469Y-83180606D01*
X148630948Y-83025604D01*
X148644589Y-82998763D01*
X148701108Y-82896213D01*
X148754504Y-82820114D01*
X148816331Y-82755911D01*
X148898144Y-82689051D01*
X148919994Y-82672103D01*
X148970482Y-82627576D01*
X148988291Y-82597142D01*
X148979265Y-82572399D01*
X148954800Y-82553121D01*
X148888958Y-82541035D01*
X148805303Y-82556821D01*
X148713907Y-82596711D01*
X148624846Y-82656933D01*
X148548192Y-82733719D01*
X148508145Y-82783307D01*
X148409791Y-82898766D01*
X148327330Y-82981622D01*
X148253052Y-83036860D01*
X148179250Y-83069463D01*
X148098216Y-83084415D01*
X148002241Y-83086699D01*
X147975465Y-83085889D01*
X147859678Y-83074436D01*
X147780640Y-83047956D01*
X147730381Y-83002402D01*
X147700932Y-82933730D01*
X147696902Y-82919826D01*
X147661832Y-82833961D01*
X147617621Y-82759454D01*
X147581889Y-82710336D01*
X147564906Y-82674957D01*
X147579283Y-82660115D01*
X147625721Y-82656919D01*
X147663797Y-82655432D01*
X147817797Y-82630029D01*
X147984964Y-82578037D01*
X148150295Y-82505752D01*
X148298790Y-82419469D01*
X148415446Y-82325484D01*
X148479985Y-82254818D01*
X148591053Y-82089522D01*
X148668962Y-81899117D01*
X148715175Y-81679440D01*
X148731151Y-81426328D01*
X148730674Y-81358941D01*
X148719386Y-81196048D01*
X148690373Y-81059251D01*
X148639737Y-80934126D01*
X148563580Y-80806248D01*
X148551395Y-80788097D01*
X148512429Y-80725661D01*
X148495165Y-80678729D01*
X148495444Y-80628094D01*
X148509111Y-80554547D01*
X148520212Y-80480900D01*
X148518822Y-80296161D01*
X148481012Y-80091988D01*
X148456828Y-80000425D01*
X148325878Y-80011284D01*
X148274384Y-80018133D01*
X148187369Y-80041207D01*
X148083256Y-80082841D01*
X147950998Y-80147033D01*
X147859272Y-80192238D01*
X147774810Y-80230220D01*
X147713736Y-80253565D01*
X147685229Y-80258426D01*
X147660241Y-80247046D01*
X147579680Y-80227530D01*
X147465912Y-80212443D01*
X147328236Y-80202037D01*
X147175950Y-80196567D01*
X147018354Y-80196284D01*
X146864745Y-80201442D01*
X146724422Y-80212294D01*
X146606685Y-80229092D01*
X146422085Y-80264559D01*
X146301937Y-80190631D01*
X146197512Y-80131394D01*
X146053608Y-80065261D01*
X145922045Y-80022218D01*
X145814231Y-80006573D01*
X145809556Y-80006555D01*
X145745217Y-80010756D01*
X145710214Y-80029420D01*
X145687768Y-80071109D01*
X145684125Y-80081312D01*
X145665438Y-80165847D01*
X145653158Y-80276439D01*
X145648142Y-80395087D01*
X145651247Y-80503786D01*
X145663331Y-80584535D01*
X145665107Y-80590994D01*
X145675944Y-80642662D01*
X145672129Y-80685302D01*
X145649391Y-80734777D01*
X145603460Y-80806952D01*
X145515847Y-80967429D01*
X145451471Y-81173950D01*
X145430327Y-81398847D01*
X145432800Y-81502471D01*
X145463003Y-81758683D01*
X145527722Y-81982566D01*
X145627185Y-82174415D01*
X145761620Y-82334526D01*
X145931253Y-82463193D01*
X146136312Y-82560713D01*
X146377026Y-82627380D01*
X146415859Y-82635129D01*
X146500221Y-82652271D01*
X146560172Y-82664901D01*
X146584687Y-82670719D01*
X146578546Y-82690092D01*
X146555144Y-82740336D01*
X146519589Y-82810127D01*
X146448042Y-82946140D01*
X146448042Y-83429011D01*
X146448028Y-83477037D01*
X146447558Y-83629296D01*
X146445983Y-83742656D01*
X146442708Y-83823780D01*
X146437137Y-83879334D01*
X146428675Y-83915983D01*
X146416727Y-83940392D01*
X146400698Y-83959226D01*
X146388258Y-83970865D01*
X146348532Y-83995386D01*
X146300043Y-84002148D01*
X146234571Y-83989959D01*
X146143897Y-83957626D01*
X146019802Y-83903957D01*
X145915347Y-83854078D01*
X145616323Y-83677654D01*
X145345737Y-83465939D01*
X145106385Y-83222472D01*
X144901061Y-82950791D01*
X144732560Y-82654434D01*
X144603677Y-82336937D01*
X144517206Y-82001840D01*
X144507818Y-81943883D01*
X144491910Y-81777318D01*
X144485875Y-81587804D01*
X144489282Y-81389272D01*
X144501701Y-81195655D01*
X144522703Y-81020884D01*
X144551857Y-80878890D01*
X144566573Y-80826442D01*
X144654614Y-80562486D01*
X144760600Y-80327829D01*
X144891184Y-80111151D01*
X145053021Y-79901128D01*
X145252767Y-79686440D01*
X145432265Y-79516250D01*
X145600379Y-79378538D01*
X145767640Y-79266555D01*
X145945489Y-79172647D01*
X146145361Y-79089161D01*
X146231511Y-79057296D01*
X146371342Y-79009754D01*
X146495503Y-78975582D01*
X146616580Y-78952652D01*
X146747162Y-78938838D01*
X146899834Y-78932014D01*
X147087185Y-78930054D01*
X147158019Y-78930058D01*
G37*
G36*
X139801435Y-80638118D02*
G01*
X139808061Y-80938817D01*
X139961928Y-80975443D01*
X140115796Y-81012069D01*
X140115796Y-81461836D01*
X139956010Y-81468835D01*
X139796225Y-81475835D01*
X139796225Y-81979404D01*
X139795319Y-82159098D01*
X139791276Y-82326310D01*
X139782740Y-82458843D01*
X139768374Y-82563435D01*
X139746839Y-82646824D01*
X139716797Y-82715747D01*
X139676908Y-82776943D01*
X139625835Y-82837150D01*
X139587864Y-82875496D01*
X139498078Y-82941311D01*
X139384783Y-82988960D01*
X139342802Y-83001835D01*
X139252140Y-83021497D01*
X139153245Y-83029228D01*
X139026886Y-83027075D01*
X138988548Y-83025042D01*
X138886813Y-83016382D01*
X138801770Y-83004711D01*
X138748741Y-82991963D01*
X138733312Y-82985689D01*
X138709114Y-82971568D01*
X138694417Y-82948400D01*
X138686852Y-82906611D01*
X138684050Y-82836626D01*
X138683643Y-82728871D01*
X138683643Y-82491566D01*
X138848027Y-82491566D01*
X138913348Y-82490570D01*
X138984772Y-82483400D01*
X139034735Y-82465990D01*
X139078828Y-82434484D01*
X139145246Y-82377403D01*
X139159934Y-81475421D01*
X138927706Y-81468628D01*
X138695479Y-81461836D01*
X138682109Y-80930950D01*
X138913677Y-80924165D01*
X139145246Y-80917381D01*
X139151893Y-80627400D01*
X139158539Y-80337418D01*
X139794810Y-80337418D01*
X139801435Y-80638118D01*
G37*
G36*
X136817010Y-79966191D02*
G01*
X136866447Y-79974383D01*
X136888278Y-79987519D01*
X136891152Y-79998061D01*
X136896431Y-80050904D01*
X136900991Y-80140310D01*
X136904584Y-80259127D01*
X136906964Y-80400202D01*
X136907884Y-80556384D01*
X136908247Y-81094921D01*
X137759580Y-81094921D01*
X137765927Y-80532712D01*
X137772273Y-79970503D01*
X138411416Y-79970503D01*
X138417552Y-81450000D01*
X138417729Y-81493751D01*
X138418561Y-81752656D01*
X138418995Y-81997168D01*
X138419044Y-82223169D01*
X138418725Y-82426539D01*
X138418051Y-82603160D01*
X138417039Y-82748913D01*
X138415701Y-82859679D01*
X138414054Y-82931340D01*
X138412112Y-82959777D01*
X138406460Y-82966811D01*
X138376678Y-82977237D01*
X138317337Y-82983201D01*
X138222543Y-82985128D01*
X138086404Y-82983449D01*
X137772273Y-82976840D01*
X137765975Y-82331780D01*
X137759676Y-81686719D01*
X137328044Y-81686703D01*
X136896411Y-81686686D01*
X136903106Y-82304730D01*
X136904535Y-82483398D01*
X136904393Y-82652894D01*
X136902170Y-82781483D01*
X136897753Y-82872624D01*
X136891030Y-82929779D01*
X136881888Y-82956407D01*
X136870850Y-82965593D01*
X136837147Y-82976865D01*
X136778280Y-82983190D01*
X136686892Y-82985179D01*
X136555622Y-82983440D01*
X136257268Y-82976840D01*
X136257268Y-79970503D01*
X136563151Y-79963848D01*
X136611699Y-79962922D01*
X136734062Y-79962514D01*
X136817010Y-79966191D01*
G37*
G36*
X133552646Y-82983648D02*
G01*
X133333579Y-82990456D01*
X133305216Y-82924468D01*
X133284001Y-82875865D01*
X133272793Y-82851601D01*
X133268679Y-82851593D01*
X133235895Y-82866043D01*
X133182102Y-82895835D01*
X133140303Y-82917970D01*
X133052038Y-82957255D01*
X132960153Y-82991499D01*
X132952720Y-82993891D01*
X132812487Y-83023629D01*
X132654156Y-83034103D01*
X132493358Y-83026044D01*
X132345727Y-83000182D01*
X132226897Y-82957247D01*
X132109675Y-82877977D01*
X132012297Y-82767456D01*
X131936484Y-82623751D01*
X131880223Y-82443014D01*
X131841498Y-82221397D01*
X131826780Y-82065478D01*
X131824659Y-81931703D01*
X132479651Y-81931703D01*
X132479992Y-81998199D01*
X132488167Y-82157489D01*
X132508083Y-82279136D01*
X132541127Y-82369542D01*
X132588686Y-82435107D01*
X132615933Y-82459129D01*
X132656891Y-82479558D01*
X132715289Y-82488703D01*
X132806006Y-82490346D01*
X132886049Y-82486054D01*
X132983271Y-82472178D01*
X133056129Y-82452110D01*
X133145390Y-82415094D01*
X133138981Y-81950600D01*
X133132571Y-81486106D01*
X133061555Y-81451514D01*
X133000362Y-81429310D01*
X132900003Y-81410712D01*
X132794182Y-81405493D01*
X132699685Y-81414207D01*
X132633295Y-81437406D01*
X132615758Y-81449994D01*
X132554587Y-81519644D01*
X132512505Y-81619952D01*
X132488023Y-81755708D01*
X132479651Y-81931703D01*
X131824659Y-81931703D01*
X131823085Y-81832427D01*
X131841209Y-81613443D01*
X131879974Y-81416047D01*
X131938203Y-81247757D01*
X132014715Y-81116093D01*
X132054422Y-81071975D01*
X132135347Y-81001548D01*
X132221201Y-80943474D01*
X132247948Y-80928561D01*
X132302757Y-80901115D01*
X132353761Y-80884037D01*
X132413744Y-80874967D01*
X132495492Y-80871548D01*
X132611788Y-80871420D01*
X132663806Y-80871906D01*
X132775763Y-80875676D01*
X132858240Y-80884502D01*
X132924195Y-80900223D01*
X132986584Y-80924682D01*
X133031246Y-80944606D01*
X133085372Y-80967603D01*
X133110391Y-80976561D01*
X133111447Y-80973610D01*
X133114602Y-80935883D01*
X133117868Y-80860137D01*
X133121031Y-80753247D01*
X133123875Y-80622087D01*
X133126183Y-80473532D01*
X133132571Y-79970503D01*
X133771714Y-79970503D01*
X133771714Y-82976840D01*
X133552646Y-82983648D01*
G37*
G36*
X142420191Y-79846063D02*
G01*
X142675885Y-79884736D01*
X142901712Y-79960095D01*
X143097483Y-80071989D01*
X143263007Y-80220265D01*
X143398094Y-80404772D01*
X143502552Y-80625359D01*
X143576193Y-80881873D01*
X143596635Y-81008829D01*
X143612119Y-81179223D01*
X143620044Y-81368122D01*
X143620410Y-81562478D01*
X143613219Y-81749242D01*
X143598470Y-81915366D01*
X143576164Y-82047801D01*
X143506709Y-82272570D01*
X143398937Y-82488530D01*
X143259132Y-82670054D01*
X143087903Y-82816513D01*
X142885856Y-82927282D01*
X142653597Y-83001732D01*
X142620257Y-83008431D01*
X142504440Y-83022237D01*
X142354226Y-83028179D01*
X142163419Y-83026569D01*
X142127303Y-83025572D01*
X141948445Y-83016175D01*
X141800868Y-82998232D01*
X141671173Y-82968849D01*
X141545962Y-82925131D01*
X141411835Y-82864182D01*
X141311229Y-82814581D01*
X141311229Y-81212392D01*
X142388303Y-81225116D01*
X142394967Y-81502624D01*
X142397399Y-81613331D01*
X142397573Y-81695127D01*
X142393754Y-81745763D01*
X142384463Y-81773639D01*
X142368223Y-81787153D01*
X142343555Y-81794707D01*
X142299394Y-81800498D01*
X142220288Y-81803288D01*
X142129712Y-81801263D01*
X141973944Y-81793243D01*
X141973994Y-82092101D01*
X141974044Y-82390960D01*
X142048019Y-82405755D01*
X142135029Y-82416705D01*
X142258418Y-82419651D01*
X142381244Y-82412108D01*
X142480579Y-82394665D01*
X142506002Y-82387062D01*
X142645225Y-82321248D01*
X142757575Y-82221089D01*
X142843728Y-82085236D01*
X142904355Y-81912337D01*
X142940131Y-81701042D01*
X142951729Y-81450000D01*
X142951272Y-81398742D01*
X142936152Y-81163958D01*
X142898541Y-80968082D01*
X142836941Y-80808047D01*
X142749851Y-80680783D01*
X142635771Y-80583225D01*
X142493201Y-80512302D01*
X142445745Y-80498325D01*
X142327007Y-80479857D01*
X142183258Y-80472250D01*
X142028332Y-80475468D01*
X141876059Y-80489474D01*
X141740273Y-80514235D01*
X141727661Y-80517296D01*
X141632626Y-80537138D01*
X141575446Y-80541317D01*
X141550139Y-80530338D01*
X141547359Y-80525182D01*
X141530149Y-80477216D01*
X141508878Y-80400479D01*
X141486284Y-80307383D01*
X141465108Y-80210340D01*
X141448086Y-80121761D01*
X141437957Y-80054058D01*
X141437460Y-80019643D01*
X141440422Y-80013637D01*
X141483646Y-79977711D01*
X141565026Y-79942695D01*
X141676707Y-79910281D01*
X141810833Y-79882162D01*
X141959548Y-79860028D01*
X142114996Y-79845572D01*
X142269322Y-79840486D01*
X142420191Y-79846063D01*
G37*
G36*
X134392851Y-80934465D02*
G01*
X134718592Y-80941053D01*
X134724844Y-81678365D01*
X134731095Y-82415676D01*
X134825928Y-82453621D01*
X134868076Y-82466958D01*
X134961967Y-82484640D01*
X135058188Y-82491566D01*
X135092422Y-82491224D01*
X135163964Y-82484918D01*
X135211744Y-82466480D01*
X135253002Y-82430507D01*
X135310390Y-82369449D01*
X135316640Y-81655251D01*
X135322889Y-80941053D01*
X135961369Y-80927881D01*
X135961369Y-81732507D01*
X135961352Y-81819306D01*
X135961046Y-82021306D01*
X135960135Y-82183515D01*
X135958335Y-82311434D01*
X135955360Y-82410561D01*
X135950923Y-82486396D01*
X135944740Y-82544437D01*
X135936526Y-82590184D01*
X135925994Y-82629135D01*
X135912859Y-82666789D01*
X135874866Y-82749509D01*
X135784722Y-82866702D01*
X135660769Y-82953600D01*
X135499766Y-83012917D01*
X135486206Y-83015781D01*
X135418204Y-83024084D01*
X135324066Y-83030418D01*
X135219876Y-83033597D01*
X135177073Y-83033761D01*
X135055084Y-83028076D01*
X134948181Y-83010006D01*
X134831986Y-82975926D01*
X134816146Y-82970541D01*
X134725331Y-82937164D01*
X134649664Y-82905462D01*
X134604168Y-82881651D01*
X134571189Y-82862837D01*
X134548609Y-82872080D01*
X134525288Y-82919005D01*
X134495210Y-82990542D01*
X134287329Y-82983691D01*
X134079449Y-82976840D01*
X134067109Y-80927878D01*
X134392851Y-80934465D01*
G37*
G36*
X140798999Y-80060377D02*
G01*
X140898351Y-80125709D01*
X140971978Y-80221195D01*
X141013440Y-80336153D01*
X141015900Y-80453724D01*
X140980776Y-80564846D01*
X140909488Y-80660460D01*
X140803456Y-80731506D01*
X140718160Y-80756667D01*
X140602855Y-80753676D01*
X140494337Y-80713889D01*
X140401759Y-80642821D01*
X140334276Y-80545984D01*
X140301040Y-80428892D01*
X140301714Y-80358129D01*
X140333421Y-80243311D01*
X140396336Y-80142652D01*
X140482711Y-80071404D01*
X140560799Y-80041331D01*
X140681726Y-80031630D01*
X140798999Y-80060377D01*
G37*
G36*
X146461243Y-97422959D02*
G01*
X145860059Y-97422959D01*
X145860059Y-96821775D01*
X146461243Y-96821775D01*
X146461243Y-97422959D01*
G37*
G36*
X136241124Y-105238343D02*
G01*
X137443491Y-105238343D01*
X137443491Y-104637160D01*
X138044675Y-104637160D01*
X138044675Y-105839527D01*
X135639941Y-105839527D01*
X135639941Y-102833610D01*
X136241124Y-102833610D01*
X136241124Y-105238343D01*
G37*
G36*
X139247042Y-87804024D02*
G01*
X138645858Y-87804024D01*
X138645858Y-87202840D01*
X138044675Y-87202840D01*
X138044675Y-86601657D01*
X139247042Y-86601657D01*
X139247042Y-87804024D01*
G37*
G36*
X148865976Y-96220592D02*
G01*
X148264793Y-96220592D01*
X148264793Y-95619408D01*
X148865976Y-95619408D01*
X148865976Y-96220592D01*
G37*
G36*
X138645858Y-90208758D02*
G01*
X138044675Y-90208758D01*
X138044675Y-89607574D01*
X138645858Y-89607574D01*
X138645858Y-90208758D01*
G37*
G36*
X149467160Y-89006391D02*
G01*
X147663610Y-89006391D01*
X147663610Y-87202840D01*
X149467160Y-87202840D01*
X149467160Y-89006391D01*
G37*
G36*
X135038758Y-99827692D02*
G01*
X134437574Y-99827692D01*
X134437574Y-99226509D01*
X135038758Y-99226509D01*
X135038758Y-99827692D01*
G37*
G36*
X141651775Y-98625326D02*
G01*
X141050592Y-98625326D01*
X141050592Y-98024142D01*
X141651775Y-98024142D01*
X141651775Y-98625326D01*
G37*
G36*
X145258876Y-104035976D02*
G01*
X144056509Y-104035976D01*
X144056509Y-103434793D01*
X145258876Y-103434793D01*
X145258876Y-104035976D01*
G37*
G36*
X133836391Y-93214675D02*
G01*
X133235207Y-93214675D01*
X133235207Y-92613491D01*
X133836391Y-92613491D01*
X133836391Y-93214675D01*
G37*
G36*
X144657692Y-97422959D02*
G01*
X144056509Y-97422959D01*
X144056509Y-96821775D01*
X144657692Y-96821775D01*
X144657692Y-97422959D01*
G37*
G36*
X138044675Y-92012308D02*
G01*
X136842308Y-92012308D01*
X136842308Y-91411124D01*
X138044675Y-91411124D01*
X138044675Y-92012308D01*
G37*
G36*
X131431657Y-99827692D02*
G01*
X132032840Y-99827692D01*
X132032840Y-101030059D01*
X131431657Y-101030059D01*
X131431657Y-100428876D01*
X130830474Y-100428876D01*
X130830474Y-99226509D01*
X131431657Y-99226509D01*
X131431657Y-99827692D01*
G37*
G36*
X144056509Y-98024142D02*
G01*
X142854142Y-98024142D01*
X142854142Y-97422959D01*
X144056509Y-97422959D01*
X144056509Y-98024142D01*
G37*
G36*
X142252959Y-105839527D02*
G01*
X141050592Y-105839527D01*
X141050592Y-105238343D01*
X141651775Y-105238343D01*
X141651775Y-104035976D01*
X142252959Y-104035976D01*
X142252959Y-105839527D01*
G37*
G36*
X145258876Y-96220592D02*
G01*
X144056509Y-96220592D01*
X144056509Y-95619408D01*
X145258876Y-95619408D01*
X145258876Y-96220592D01*
G37*
G36*
X147062426Y-102232426D02*
G01*
X146461243Y-102232426D01*
X146461243Y-101631243D01*
X147062426Y-101631243D01*
X147062426Y-102232426D01*
G37*
G36*
X141050592Y-89006391D02*
G01*
X142854142Y-89006391D01*
X142854142Y-89607574D01*
X142252959Y-89607574D01*
X142252959Y-90809941D01*
X141651775Y-90809941D01*
X141651775Y-89607574D01*
X141050592Y-89607574D01*
X141050592Y-90208758D01*
X140449408Y-90208758D01*
X140449408Y-88405207D01*
X141050592Y-88405207D01*
X141050592Y-89006391D01*
G37*
G36*
X133836391Y-89006391D02*
G01*
X132032840Y-89006391D01*
X132032840Y-87202840D01*
X133836391Y-87202840D01*
X133836391Y-89006391D01*
G37*
G36*
X142252959Y-99226509D02*
G01*
X141651775Y-99226509D01*
X141651775Y-98625326D01*
X142252959Y-98625326D01*
X142252959Y-99226509D01*
G37*
G36*
X148264793Y-96821775D02*
G01*
X147663610Y-96821775D01*
X147663610Y-96220592D01*
X148264793Y-96220592D01*
X148264793Y-96821775D01*
G37*
G36*
X133836391Y-104637160D02*
G01*
X132032840Y-104637160D01*
X132032840Y-102833610D01*
X133836391Y-102833610D01*
X133836391Y-104637160D01*
G37*
G36*
X144056509Y-96821775D02*
G01*
X143455326Y-96821775D01*
X143455326Y-96220592D01*
X144056509Y-96220592D01*
X144056509Y-96821775D01*
G37*
G36*
X135639941Y-98024142D02*
G01*
X135038758Y-98024142D01*
X135038758Y-97422959D01*
X135639941Y-97422959D01*
X135639941Y-98024142D01*
G37*
G36*
X135038758Y-105839527D02*
G01*
X130830474Y-105839527D01*
X130830474Y-105238343D01*
X131431657Y-105238343D01*
X134437574Y-105238343D01*
X134437574Y-102232426D01*
X131431657Y-102232426D01*
X131431657Y-105238343D01*
X130830474Y-105238343D01*
X130830474Y-101631243D01*
X135038758Y-101631243D01*
X135038758Y-105839527D01*
G37*
G36*
X142854142Y-98625326D02*
G01*
X142252959Y-98625326D01*
X142252959Y-98024142D01*
X142854142Y-98024142D01*
X142854142Y-98625326D01*
G37*
G36*
X142854142Y-96220592D02*
G01*
X142252959Y-96220592D01*
X142252959Y-95018225D01*
X142854142Y-95018225D01*
X142854142Y-96220592D01*
G37*
G36*
X143455326Y-91411124D02*
G01*
X144056509Y-91411124D01*
X144056509Y-92012308D01*
X143455326Y-92012308D01*
X143455326Y-92613491D01*
X144056509Y-92613491D01*
X144056509Y-92012308D01*
X144657692Y-92012308D01*
X144657692Y-93214675D01*
X144056509Y-93214675D01*
X144056509Y-93815858D01*
X144657692Y-93815858D01*
X144657692Y-93214675D01*
X145258876Y-93214675D01*
X145258876Y-94417042D01*
X144657692Y-94417042D01*
X144657692Y-95018225D01*
X144056509Y-95018225D01*
X144056509Y-95619408D01*
X143455326Y-95619408D01*
X143455326Y-95018225D01*
X144056509Y-95018225D01*
X144056509Y-94417042D01*
X143455326Y-94417042D01*
X143455326Y-95018225D01*
X142854142Y-95018225D01*
X142854142Y-94417042D01*
X142252959Y-94417042D01*
X142252959Y-93815858D01*
X141651775Y-93815858D01*
X141651775Y-93214675D01*
X143455326Y-93214675D01*
X143455326Y-92613491D01*
X142854142Y-92613491D01*
X142854142Y-90809941D01*
X143455326Y-90809941D01*
X143455326Y-91411124D01*
G37*
G36*
X133836391Y-99827692D02*
G01*
X134437574Y-99827692D01*
X134437574Y-100428876D01*
X135038758Y-100428876D01*
X135038758Y-101030059D01*
X133836391Y-101030059D01*
X133836391Y-100428876D01*
X132634024Y-100428876D01*
X132634024Y-99226509D01*
X133836391Y-99226509D01*
X133836391Y-99827692D01*
G37*
G36*
X141651775Y-97422959D02*
G01*
X141050592Y-97422959D01*
X141050592Y-95619408D01*
X140449408Y-95619408D01*
X140449408Y-95018225D01*
X141651775Y-95018225D01*
X141651775Y-97422959D01*
G37*
G36*
X137443491Y-104637160D02*
G01*
X136842308Y-104637160D01*
X136842308Y-104035976D01*
X137443491Y-104035976D01*
X137443491Y-104637160D01*
G37*
G36*
X145860059Y-86601657D02*
G01*
X145258876Y-86601657D01*
X145258876Y-86000474D01*
X145860059Y-86000474D01*
X145860059Y-86601657D01*
G37*
G36*
X135038758Y-90208758D02*
G01*
X130830474Y-90208758D01*
X130830474Y-89607574D01*
X131431657Y-89607574D01*
X134437574Y-89607574D01*
X134437574Y-86601657D01*
X131431657Y-86601657D01*
X131431657Y-89607574D01*
X130830474Y-89607574D01*
X130830474Y-86000474D01*
X135038758Y-86000474D01*
X135038758Y-90208758D01*
G37*
G36*
X142854142Y-97422959D02*
G01*
X142252959Y-97422959D01*
X142252959Y-96821775D01*
X142854142Y-96821775D01*
X142854142Y-97422959D01*
G37*
G36*
X138645858Y-91411124D02*
G01*
X138044675Y-91411124D01*
X138044675Y-90809941D01*
X138645858Y-90809941D01*
X138645858Y-91411124D01*
G37*
G36*
X148264793Y-102833610D02*
G01*
X150669527Y-102833610D01*
X150669527Y-103434793D01*
X149467160Y-103434793D01*
X149467160Y-104035976D01*
X148865976Y-104035976D01*
X148865976Y-105238343D01*
X149467160Y-105238343D01*
X149467160Y-105839527D01*
X142854142Y-105839527D01*
X142854142Y-104637160D01*
X145860059Y-104637160D01*
X145860059Y-105238343D01*
X146461243Y-105238343D01*
X146461243Y-104035976D01*
X147062426Y-104035976D01*
X147062426Y-105238343D01*
X147663610Y-105238343D01*
X147663610Y-104637160D01*
X148264793Y-104637160D01*
X148264793Y-104035976D01*
X148865976Y-104035976D01*
X148865976Y-103434793D01*
X148264793Y-103434793D01*
X148264793Y-104035976D01*
X147663610Y-104035976D01*
X147663610Y-103434793D01*
X146461243Y-103434793D01*
X146461243Y-104035976D01*
X145860059Y-104035976D01*
X145860059Y-103434793D01*
X145258876Y-103434793D01*
X145258876Y-102833610D01*
X145860059Y-102833610D01*
X147663610Y-102833610D01*
X147663610Y-101030059D01*
X145860059Y-101030059D01*
X145860059Y-102833610D01*
X145258876Y-102833610D01*
X144657692Y-102833610D01*
X144657692Y-102232426D01*
X143455326Y-102232426D01*
X143455326Y-102833610D01*
X142854142Y-102833610D01*
X142854142Y-103434793D01*
X142252959Y-103434793D01*
X142252959Y-101631243D01*
X143455326Y-101631243D01*
X143455326Y-101030059D01*
X141651775Y-101030059D01*
X141651775Y-102833610D01*
X141050592Y-102833610D01*
X141050592Y-102232426D01*
X139848225Y-102232426D01*
X139848225Y-103434793D01*
X141050592Y-103434793D01*
X141050592Y-104035976D01*
X139848225Y-104035976D01*
X139848225Y-104637160D01*
X140449408Y-104637160D01*
X140449408Y-105238343D01*
X139848225Y-105238343D01*
X139848225Y-105839527D01*
X138645858Y-105839527D01*
X138645858Y-105238343D01*
X139247042Y-105238343D01*
X139247042Y-104637160D01*
X138645858Y-104637160D01*
X138645858Y-104035976D01*
X138044675Y-104035976D01*
X138044675Y-103434793D01*
X139247042Y-103434793D01*
X139247042Y-102232426D01*
X137443491Y-102232426D01*
X137443491Y-102833610D01*
X136241124Y-102833610D01*
X136241124Y-102232426D01*
X135639941Y-102232426D01*
X135639941Y-101631243D01*
X136241124Y-101631243D01*
X136842308Y-101631243D01*
X138044675Y-101631243D01*
X138044675Y-100428876D01*
X137443491Y-100428876D01*
X137443491Y-101030059D01*
X136842308Y-101030059D01*
X136842308Y-101631243D01*
X136241124Y-101631243D01*
X136241124Y-100428876D01*
X137443491Y-100428876D01*
X137443491Y-99827692D01*
X138044675Y-99827692D01*
X138044675Y-99226509D01*
X137443491Y-99226509D01*
X137443491Y-98625326D01*
X138044675Y-98625326D01*
X138044675Y-98024142D01*
X138645858Y-98024142D01*
X138645858Y-97422959D01*
X138044675Y-97422959D01*
X138044675Y-98024142D01*
X137443491Y-98024142D01*
X137443491Y-98625326D01*
X136842308Y-98625326D01*
X136842308Y-99226509D01*
X136241124Y-99226509D01*
X136241124Y-99827692D01*
X135639941Y-99827692D01*
X135639941Y-99226509D01*
X135038758Y-99226509D01*
X135038758Y-98625326D01*
X132032840Y-98625326D01*
X132032840Y-99226509D01*
X131431657Y-99226509D01*
X131431657Y-98024142D01*
X132032840Y-98024142D01*
X133836391Y-98024142D01*
X134437574Y-98024142D01*
X135038758Y-98024142D01*
X135038758Y-98625326D01*
X135639941Y-98625326D01*
X135639941Y-98024142D01*
X137443491Y-98024142D01*
X137443491Y-97422959D01*
X136842308Y-97422959D01*
X136842308Y-96821775D01*
X137443491Y-96821775D01*
X138044675Y-96821775D01*
X138645858Y-96821775D01*
X138645858Y-96220592D01*
X138044675Y-96220592D01*
X138044675Y-96821775D01*
X137443491Y-96821775D01*
X137443491Y-96220592D01*
X136842308Y-96220592D01*
X136842308Y-96821775D01*
X135038758Y-96821775D01*
X135038758Y-97422959D01*
X134437574Y-97422959D01*
X134437574Y-98024142D01*
X133836391Y-98024142D01*
X133836391Y-97422959D01*
X132032840Y-97422959D01*
X132032840Y-98024142D01*
X131431657Y-98024142D01*
X130830474Y-98024142D01*
X130830474Y-96821775D01*
X131431657Y-96821775D01*
X132032840Y-96821775D01*
X133836391Y-96821775D01*
X135038758Y-96821775D01*
X135038758Y-96220592D01*
X135639941Y-96220592D01*
X136241124Y-96220592D01*
X136241124Y-95619408D01*
X137443491Y-95619408D01*
X137443491Y-95018225D01*
X138044675Y-95018225D01*
X138645858Y-95018225D01*
X138645858Y-94417042D01*
X139848225Y-94417042D01*
X139848225Y-93815858D01*
X140449408Y-93815858D01*
X140449408Y-93214675D01*
X141050592Y-93214675D01*
X141050592Y-92613491D01*
X140449408Y-92613491D01*
X140449408Y-93214675D01*
X139247042Y-93214675D01*
X139247042Y-93815858D01*
X138645858Y-93815858D01*
X138645858Y-94417042D01*
X138044675Y-94417042D01*
X138044675Y-95018225D01*
X137443491Y-95018225D01*
X137443491Y-94417042D01*
X138044675Y-94417042D01*
X138044675Y-93815858D01*
X137443491Y-93815858D01*
X137443491Y-94417042D01*
X136842308Y-94417042D01*
X136842308Y-95018225D01*
X135639941Y-95018225D01*
X135639941Y-96220592D01*
X135038758Y-96220592D01*
X133836391Y-96220592D01*
X133836391Y-96821775D01*
X132032840Y-96821775D01*
X132032840Y-96220592D01*
X133836391Y-96220592D01*
X133836391Y-95619408D01*
X135038758Y-95619408D01*
X135038758Y-95018225D01*
X133836391Y-95018225D01*
X133836391Y-95619408D01*
X132032840Y-95619408D01*
X132032840Y-96220592D01*
X131431657Y-96220592D01*
X131431657Y-96821775D01*
X130830474Y-96821775D01*
X130830474Y-95018225D01*
X131431657Y-95018225D01*
X131431657Y-94417042D01*
X130830474Y-94417042D01*
X130830474Y-93815858D01*
X131431657Y-93815858D01*
X131431657Y-92613491D01*
X132032840Y-92613491D01*
X132032840Y-92012308D01*
X131431657Y-92012308D01*
X131431657Y-92613491D01*
X130830474Y-92613491D01*
X130830474Y-92012308D01*
X131431657Y-92012308D01*
X131431657Y-91411124D01*
X130830474Y-91411124D01*
X130830474Y-90809941D01*
X133836391Y-90809941D01*
X133836391Y-91411124D01*
X133235207Y-91411124D01*
X133235207Y-92613491D01*
X132032840Y-92613491D01*
X132032840Y-95018225D01*
X133235207Y-95018225D01*
X133235207Y-94417042D01*
X134437574Y-94417042D01*
X136241124Y-94417042D01*
X136241124Y-93815858D01*
X134437574Y-93815858D01*
X134437574Y-94417042D01*
X133235207Y-94417042D01*
X133235207Y-93815858D01*
X133836391Y-93815858D01*
X133836391Y-93214675D01*
X135639941Y-93214675D01*
X135639941Y-92613491D01*
X134437574Y-92613491D01*
X134437574Y-92012308D01*
X135038758Y-92012308D01*
X135038758Y-91411124D01*
X135639941Y-91411124D01*
X136241124Y-91411124D01*
X136241124Y-90809941D01*
X135639941Y-90809941D01*
X135639941Y-91411124D01*
X135038758Y-91411124D01*
X134437574Y-91411124D01*
X134437574Y-92012308D01*
X133836391Y-92012308D01*
X133836391Y-91411124D01*
X134437574Y-91411124D01*
X134437574Y-90809941D01*
X135639941Y-90809941D01*
X135639941Y-89607574D01*
X136241124Y-89607574D01*
X136241124Y-90208758D01*
X136842308Y-90208758D01*
X136842308Y-89006391D01*
X135639941Y-89006391D01*
X135639941Y-88405207D01*
X136842308Y-88405207D01*
X136842308Y-87804024D01*
X138645858Y-87804024D01*
X138645858Y-88405207D01*
X138044675Y-88405207D01*
X138044675Y-89607574D01*
X137443491Y-89607574D01*
X137443491Y-90208758D01*
X138044675Y-90208758D01*
X138044675Y-90809941D01*
X136842308Y-90809941D01*
X136842308Y-91411124D01*
X136241124Y-91411124D01*
X136241124Y-92012308D01*
X136842308Y-92012308D01*
X136842308Y-92613491D01*
X138044675Y-92613491D01*
X138044675Y-93214675D01*
X139247042Y-93214675D01*
X139247042Y-92613491D01*
X138645858Y-92613491D01*
X138645858Y-92012308D01*
X139247042Y-92012308D01*
X139848225Y-92012308D01*
X139848225Y-91411124D01*
X139247042Y-91411124D01*
X139247042Y-92012308D01*
X138645858Y-92012308D01*
X138645858Y-91411124D01*
X139247042Y-91411124D01*
X139247042Y-89006391D01*
X138645858Y-89006391D01*
X138645858Y-88405207D01*
X139848225Y-88405207D01*
X139848225Y-87804024D01*
X140449408Y-87804024D01*
X140449408Y-86601657D01*
X141050592Y-86601657D01*
X141050592Y-87202840D01*
X141651775Y-87202840D01*
X141651775Y-86601657D01*
X142252959Y-86601657D01*
X142252959Y-87202840D01*
X142854142Y-87202840D01*
X142854142Y-87804024D01*
X140449408Y-87804024D01*
X140449408Y-88405207D01*
X139848225Y-88405207D01*
X139848225Y-90809941D01*
X141651775Y-90809941D01*
X141651775Y-91411124D01*
X141050592Y-91411124D01*
X141050592Y-92012308D01*
X142252959Y-92012308D01*
X142252959Y-92613491D01*
X141651775Y-92613491D01*
X141651775Y-93214675D01*
X141050592Y-93214675D01*
X141050592Y-94417042D01*
X140449408Y-94417042D01*
X140449408Y-95018225D01*
X139848225Y-95018225D01*
X139848225Y-96220592D01*
X139247042Y-96220592D01*
X139247042Y-97422959D01*
X139848225Y-97422959D01*
X139848225Y-98024142D01*
X140449408Y-98024142D01*
X140449408Y-98625326D01*
X141050592Y-98625326D01*
X141050592Y-99226509D01*
X139247042Y-99226509D01*
X139247042Y-98625326D01*
X138044675Y-98625326D01*
X138044675Y-99226509D01*
X138645858Y-99226509D01*
X138645858Y-100428876D01*
X139247042Y-100428876D01*
X139247042Y-101030059D01*
X139848225Y-101030059D01*
X139848225Y-101631243D01*
X139247042Y-101631243D01*
X139247042Y-102232426D01*
X139848225Y-102232426D01*
X139848225Y-101631243D01*
X140449408Y-101631243D01*
X140449408Y-100428876D01*
X139848225Y-100428876D01*
X139848225Y-99827692D01*
X141050592Y-99827692D01*
X141050592Y-100428876D01*
X142252959Y-100428876D01*
X142252959Y-99827692D01*
X142854142Y-99827692D01*
X142854142Y-100428876D01*
X144056509Y-100428876D01*
X144056509Y-101030059D01*
X144657692Y-101030059D01*
X144657692Y-101631243D01*
X145258876Y-101631243D01*
X145258876Y-99827692D01*
X145860059Y-99827692D01*
X145860059Y-100428876D01*
X146461243Y-100428876D01*
X146461243Y-99226509D01*
X147062426Y-99226509D01*
X147663610Y-99226509D01*
X148865976Y-99226509D01*
X148865976Y-98625326D01*
X147663610Y-98625326D01*
X147663610Y-99226509D01*
X147062426Y-99226509D01*
X147062426Y-96821775D01*
X147663610Y-96821775D01*
X147663610Y-97422959D01*
X148264793Y-97422959D01*
X148264793Y-96821775D01*
X149467160Y-96821775D01*
X149467160Y-95619408D01*
X150068343Y-95619408D01*
X150068343Y-95018225D01*
X149467160Y-95018225D01*
X149467160Y-94417042D01*
X148865976Y-94417042D01*
X148865976Y-95018225D01*
X148264793Y-95018225D01*
X148264793Y-93815858D01*
X148865976Y-93815858D01*
X150068343Y-93815858D01*
X150068343Y-93214675D01*
X149467160Y-93214675D01*
X149467160Y-92613491D01*
X150068343Y-92613491D01*
X150068343Y-92012308D01*
X148865976Y-92012308D01*
X148865976Y-93815858D01*
X148264793Y-93815858D01*
X147663610Y-93815858D01*
X147663610Y-94417042D01*
X147062426Y-94417042D01*
X147062426Y-93214675D01*
X146461243Y-93214675D01*
X146461243Y-92613491D01*
X145860059Y-92613491D01*
X145860059Y-92012308D01*
X147062426Y-92012308D01*
X147062426Y-91411124D01*
X145258876Y-91411124D01*
X145258876Y-90809941D01*
X144657692Y-90809941D01*
X144657692Y-91411124D01*
X144056509Y-91411124D01*
X144056509Y-89607574D01*
X143455326Y-89607574D01*
X143455326Y-89006391D01*
X144056509Y-89006391D01*
X144657692Y-89006391D01*
X144657692Y-87804024D01*
X144056509Y-87804024D01*
X144056509Y-89006391D01*
X143455326Y-89006391D01*
X142854142Y-89006391D01*
X142854142Y-87804024D01*
X144056509Y-87804024D01*
X144056509Y-87202840D01*
X143455326Y-87202840D01*
X143455326Y-86601657D01*
X144056509Y-86601657D01*
X144056509Y-86000474D01*
X144657692Y-86000474D01*
X144657692Y-86601657D01*
X144056509Y-86601657D01*
X144056509Y-87202840D01*
X144657692Y-87202840D01*
X144657692Y-86601657D01*
X145258876Y-86601657D01*
X145258876Y-87202840D01*
X145860059Y-87202840D01*
X145860059Y-87804024D01*
X145258876Y-87804024D01*
X145258876Y-88405207D01*
X145860059Y-88405207D01*
X145860059Y-89006391D01*
X145258876Y-89006391D01*
X145258876Y-89607574D01*
X144657692Y-89607574D01*
X144657692Y-90208758D01*
X145258876Y-90208758D01*
X145258876Y-89607574D01*
X145860059Y-89607574D01*
X145860059Y-90809941D01*
X147062426Y-90809941D01*
X147062426Y-91411124D01*
X147663610Y-91411124D01*
X147663610Y-90809941D01*
X148264793Y-90809941D01*
X148264793Y-91411124D01*
X147663610Y-91411124D01*
X147663610Y-92012308D01*
X148264793Y-92012308D01*
X148264793Y-91411124D01*
X148865976Y-91411124D01*
X148865976Y-90809941D01*
X150068343Y-90809941D01*
X150068343Y-91411124D01*
X150669527Y-91411124D01*
X150669527Y-92613491D01*
X150068343Y-92613491D01*
X150068343Y-93214675D01*
X150669527Y-93214675D01*
X150669527Y-93815858D01*
X150068343Y-93815858D01*
X150068343Y-95018225D01*
X150669527Y-95018225D01*
X150669527Y-95619408D01*
X150068343Y-95619408D01*
X150068343Y-96220592D01*
X150669527Y-96220592D01*
X150669527Y-96821775D01*
X150068343Y-96821775D01*
X150068343Y-97422959D01*
X149467160Y-97422959D01*
X149467160Y-98024142D01*
X150068343Y-98024142D01*
X150068343Y-97422959D01*
X150669527Y-97422959D01*
X150669527Y-99226509D01*
X150068343Y-99226509D01*
X150068343Y-99827692D01*
X150669527Y-99827692D01*
X150669527Y-102232426D01*
X149467160Y-102232426D01*
X149467160Y-101631243D01*
X150068343Y-101631243D01*
X150068343Y-101030059D01*
X149467160Y-101030059D01*
X149467160Y-99226509D01*
X148865976Y-99226509D01*
X148865976Y-99827692D01*
X147062426Y-99827692D01*
X147062426Y-100428876D01*
X148264793Y-100428876D01*
X148264793Y-102833610D01*
G37*
G36*
X145258876Y-98024142D02*
G01*
X144657692Y-98024142D01*
X144657692Y-97422959D01*
X145258876Y-97422959D01*
X145258876Y-98024142D01*
G37*
G36*
X150669527Y-90208758D02*
G01*
X146461243Y-90208758D01*
X146461243Y-89607574D01*
X147062426Y-89607574D01*
X150068343Y-89607574D01*
X150068343Y-86601657D01*
X147062426Y-86601657D01*
X147062426Y-89607574D01*
X146461243Y-89607574D01*
X146461243Y-86000474D01*
X150669527Y-86000474D01*
X150669527Y-90208758D01*
G37*
G36*
X146461243Y-95018225D02*
G01*
X147663610Y-95018225D01*
X147663610Y-95619408D01*
X145258876Y-95619408D01*
X145258876Y-94417042D01*
X145860059Y-94417042D01*
X145860059Y-93815858D01*
X146461243Y-93815858D01*
X146461243Y-95018225D01*
G37*
G36*
X141050592Y-98024142D02*
G01*
X140449408Y-98024142D01*
X140449408Y-97422959D01*
X141050592Y-97422959D01*
X141050592Y-98024142D01*
G37*
G36*
X139848225Y-86601657D02*
G01*
X139247042Y-86601657D01*
X139247042Y-86000474D01*
X139848225Y-86000474D01*
X139848225Y-86601657D01*
G37*
G36*
X149467160Y-95619408D02*
G01*
X148865976Y-95619408D01*
X148865976Y-95018225D01*
X149467160Y-95018225D01*
X149467160Y-95619408D01*
G37*
G36*
X138044675Y-103434793D02*
G01*
X137443491Y-103434793D01*
X137443491Y-102833610D01*
X138044675Y-102833610D01*
X138044675Y-103434793D01*
G37*
G36*
X142854142Y-86601657D02*
G01*
X142252959Y-86601657D01*
X142252959Y-86000474D01*
X142854142Y-86000474D01*
X142854142Y-86601657D01*
G37*
G36*
X140449408Y-97422959D02*
G01*
X139848225Y-97422959D01*
X139848225Y-96220592D01*
X140449408Y-96220592D01*
X140449408Y-97422959D01*
G37*
G36*
X147062426Y-96821775D02*
G01*
X146461243Y-96821775D01*
X146461243Y-96220592D01*
X147062426Y-96220592D01*
X147062426Y-96821775D01*
G37*
G36*
X136842308Y-86601657D02*
G01*
X136241124Y-86601657D01*
X136241124Y-87202840D01*
X136842308Y-87202840D01*
X136842308Y-86601657D01*
X137443491Y-86601657D01*
X137443491Y-87202840D01*
X136842308Y-87202840D01*
X136842308Y-87804024D01*
X135639941Y-87804024D01*
X135639941Y-86601657D01*
X136241124Y-86601657D01*
X136241124Y-86000474D01*
X136842308Y-86000474D01*
X136842308Y-86601657D01*
G37*
G36*
X150669527Y-105839527D02*
G01*
X150068343Y-105839527D01*
X150068343Y-105238343D01*
X149467160Y-105238343D01*
X149467160Y-104637160D01*
X150669527Y-104637160D01*
X150669527Y-105839527D01*
G37*
G36*
X143455326Y-104035976D02*
G01*
X142854142Y-104035976D01*
X142854142Y-103434793D01*
X143455326Y-103434793D01*
X143455326Y-104035976D01*
G37*
G36*
X143455326Y-90208758D02*
G01*
X142854142Y-90208758D01*
X142854142Y-89607574D01*
X143455326Y-89607574D01*
X143455326Y-90208758D01*
G37*
G36*
X145860059Y-98625326D02*
G01*
X146461243Y-98625326D01*
X146461243Y-99226509D01*
X145258876Y-99226509D01*
X145258876Y-99827692D01*
X144056509Y-99827692D01*
X144056509Y-99226509D01*
X143455326Y-99226509D01*
X143455326Y-98625326D01*
X145258876Y-98625326D01*
X145258876Y-98024142D01*
X145860059Y-98024142D01*
X145860059Y-98625326D01*
G37*
%LPC*%
D11*
X162575000Y-111760000D02*
G75*
G03*
X162575000Y-111760000I-325000J0D01*
G01*
X124925000Y-111700000D02*
G75*
G03*
X124925000Y-111700000I-325000J0D01*
G01*
X168125000Y-79100000D02*
G75*
G03*
X168125000Y-79100000I-325000J0D01*
G01*
D12*
X121200000Y-84750000D03*
D13*
X121200000Y-88250000D03*
D14*
X162250000Y-111760000D03*
D15*
X120000000Y-94000000D03*
D16*
X120000000Y-96540000D03*
X120000000Y-99080000D03*
X120000000Y-101620000D03*
D17*
X157000000Y-82550000D03*
D18*
X163000000Y-82550000D03*
D19*
X160000000Y-77750000D03*
D20*
X165800000Y-91500000D03*
X165800000Y-96500000D03*
D21*
X168500000Y-97500000D03*
X168500000Y-90500000D03*
D15*
X159500000Y-104000000D03*
D16*
X159500000Y-106540000D03*
X159500000Y-109080000D03*
X159500000Y-111620000D03*
D14*
X124600000Y-111700000D03*
D22*
X146500000Y-110000000D03*
D23*
X140500000Y-110000000D03*
D22*
X134500000Y-110000000D03*
D23*
X128500000Y-110000000D03*
D14*
X167800000Y-79100000D03*
D24*
X167500000Y-106580000D03*
D16*
X164960000Y-106580000D03*
X167500000Y-109120000D03*
X164960000Y-109120000D03*
X167500000Y-111660000D03*
X164960000Y-111660000D03*
D24*
X121960000Y-106580000D03*
D16*
X119420000Y-106580000D03*
X121960000Y-109120000D03*
X119420000Y-109120000D03*
X121960000Y-111660000D03*
X119420000Y-111660000D03*
M02*
